<?xml version="1.0" encoding="UTF-8"?>
<svg width="400" height="220" version="1.1" viewBox="0 0 105.83 58.208" xmlns="http://www.w3.org/2000/svg">
	<title>Counter with pointer</title>
    <desc>The pointer indicates the correct answers from 0 to 10 in a counter in the form of a semicircle that has four areas labeled with the text: “insufficient”, “fair”, “good” and “excellent”.</desc>
	<defs><clipPath id="a"><path d="m23.149 9.0993c-13.438 9.0736-21.972 23.8-23.14 39.93-0.15217 2.1011 1.5767 3.8119 3.6915 3.8119h23.734c2.1149 0 3.8162-1.7234 4.2038-3.792 1.684-8.9862 8.8444-16.036 17.883-17.606 2.0808-0.36161 5.5414-0.36701 7.6197 7e-3 8.8097 1.5835 15.08 8.6234 16.556 17.595 0.34174 2.0774 2.0454 3.7972 4.1604 3.7972h24.273c2.1149 0 3.8437-1.7107 3.6915-3.8119-1.1682-16.131-9.7021-30.858-23.14-39.931-1.7503-1.1818-4.7243-2.8926-6.6269-3.8119-14.606-7.0578-31.673-7.0578-46.279 0-1.9025 0.91927-4.8765 2.63-6.6269 3.8119z" fill="#0f0" stroke-linecap="round" stroke-width=".079454"/></clipPath></defs><g clip-path="url(#a)"><path d="m52.914-0.001674c-4.7395 0-9.4778 0.63742-14.085 1.9017-0.06321 0.01729-0.12652 0.03416-0.18965 0.05168-0.24752 0.0689-0.49482 0.1388-0.74157 0.21136-0.29501 0.08651-0.58912 0.17555-0.88262 0.26716-0.16716 0.05233-0.33398 0.10566-0.50075 0.15968-0.35229 0.1138-0.70374 0.23024-1.0537 0.3514-0.09768 0.03392-0.19494 0.06936-0.2925 0.10387-0.40857 0.14415-0.81597 0.2918-1.2211 0.44596-0.0026 6.09e-4 -0.0032 0.0015-0.0048 0.0021-2.598 0.98893-5.1231 2.1832-7.5494 3.576-3.2712 1.8893-6.2375 4.028-9.0004 6.5319-10.096 9.0697-16.394 21.745-17.385 35.433-0.01191 0.16487-0.0085 0.32633 0.0026 0.48575-0.07855 1.0993-0.12549 2.2058-0.13951 3.3186l106.09 2.7e-5c-0.01-1.1385-0.0541-2.2702-0.13229-3.3946 6e-3 -0.13439 5e-3 -0.27062-5e-3 -0.40876-0.93929-12.97-6.6434-25.03-15.827-33.976l7e-3 -0.0072c-3.2035-3.1564-6.6655-5.7325-10.563-7.984-4.1446-2.3803-8.5755-4.1793-13.168-5.3666-0.0541-0.01402-0.10813-0.02852-0.16227-0.04237-0.40282-0.10279-0.80713-0.20018-1.2123-0.29352-0.12364-0.02855-0.24725-0.05658-0.37105-0.08423-0.37005-0.08246-0.74075-0.16212-1.1126-0.23668-0.15193-0.03054-0.30417-0.05865-0.4563-0.08785-0.27332-0.05233-0.54692-0.10285-0.82114-0.1509-0.24984-0.04391-0.50001-0.08526-0.75033-0.12557-0.21667-0.03478-0.43346-0.06866-0.65061-0.10077-0.41838-0.06208-0.83732-0.11847-1.2568-0.17053-0.07014-0.0087-0.14015-0.01845-0.21032-0.02687-0.0066-7.93e-4 -0.01323-0.0013-0.01958-0.0021-0.27715-0.03317-0.55448-0.06421-0.832-0.09302-1.8286-0.18982-3.6647-0.28891-5.501-0.28891z" fill="#fff" stroke-width=".26458"/><g stroke-width=".28892"><path d="m14.799 16.135c-9.531 9.9166-14.753 22.823-14.928 36.701h31.392c0.09043-5.5163 2.2581-10.797 6.0732-14.796z" fill="#f97301"/><path d="m51.864 0.020187c-8.951 0.16984-17.713 2.594-25.47 7.0468-3.8979 2.2513-7.365 4.8542-10.568 8.0106l22.427 22.033c3.7181-3.4716 8.5272-5.555 13.612-5.8964z" fill="#ffe900"/><path d="m91.031 16.135c9.5273 9.8511 14.813 22.791 14.928 36.701h-31.392c-0.090433-5.5163-2.2581-10.797-6.0732-14.796z" fill="#0cb200"/><path d="m53.271 0.0057678v31.169c5.333 0.1904 10.417 2.2988 14.309 5.9351l22.422-22.06c-3.2035-3.1564-6.6654-5.7323-10.563-7.9838-7.9616-4.5724-16.979-7.0059-26.168-7.0615z" fill="#9bd701"/></g><path d="m53.286 0v8.6857c11.439 0.052083 22.391 4.479 30.636 12.384l6.0792-6.0175c-3.1719-3.091-6.7207-5.773-10.563-7.9838-7.9573-4.577-16.97-7.0047-26.154-7.0684zm-1.3525 0.020101c-8.9701 0.16618-17.759 2.5737-25.538 7.0483-3.9002 2.2434-7.431 4.9511-10.568 8.0106l6.2254 6.2024c8.0259-7.7926 18.696-12.272 29.881-12.571zm-37.062 16.013c-9.4804 9.73-14.999 22.87-14.999 36.804h8.7223c0.055006-11.435 4.5492-22.387 12.506-30.598zm76.125 0.01402-6.0416 6.0193c8.0762 8.2283 12.627 19.261 12.693 30.768h8.3133c-8.6e-4 -13.734-5.3674-26.929-14.964-36.79z" fill="#e5e5e5" stroke-linecap="round" stroke-width=".079454"/><path transform="matrix(.26458 0 0 .26458 -.0013636 0)" d="m249.96 17.842c-1.132-0.009057-2.1572 0.30131-3.0762 0.92773-1.3986 0.94786-2.4002 2.5267-3.0078 4.7363l-0.3164 1.1445c-0.35918 1.3849-0.42665 2.666-0.20313 3.8438 0.23206 1.1729 0.74384 2.1671 1.5352 2.9824 0.79131 0.81536 1.8 1.3916 3.0254 1.7285 1.1919 0.32772 2.3048 0.44283 3.3398 0.3457s1.9122-0.41866 2.6309-0.96289l1.541-5.6035-5.5449-1.5254-0.5293 1.9297 3.0137 0.82812-0.78711 2.8633c-0.71108 0.43827-1.7166 0.47827-3.0156 0.12109-1.1852-0.32588-1.9936-1.0157-2.4238-2.0703-0.42165-1.0594-0.41497-2.3807 0.01953-3.9609l0.30859-1.125c0.45643-1.5814 1.0924-2.6986 1.9062-3.3535 0.8224-0.65974 1.8031-0.83252 2.9414-0.51953 1.761 0.48421 2.5389 1.6441 2.3359 3.4824l2.4922 0.68555c0.22191-1.5667-0.03685-2.8824-0.77343-3.9492-0.73659-1.0668-1.9178-1.8241-3.5449-2.2715-0.65139-0.1791-1.2742-0.2726-1.8672-0.27734zm-101.76 1.2324c-0.70324 0.006334-1.4725 0.13507-2.3106 0.38672l-5.1094 1.5332 4.3633 14.527 2.5234-0.75781-1.6816-5.5977 2.8145-0.8457 4.5938 4.7227 2.7031-0.8125-0.03906-0.12891-5.0801-5.0762c0.73218-0.60415 1.2321-1.3021 1.502-2.0938 0.27446-0.80026 0.2662-1.6852-0.02539-2.6562-0.4274-1.4233-1.2088-2.3736-2.3457-2.8516-0.56844-0.23898-1.205-0.35594-1.9082-0.34961zm-0.55274 2.2266c0.41853-0.00689 0.78665 0.071036 1.1055 0.23633 0.57344 0.29186 0.97727 0.8273 1.2109 1.6055 0.22368 0.74492 0.16156 1.4063-0.1875 1.9824-0.35106 0.56946-0.95335 0.98069-1.8047 1.2363l-2.5938 0.7793-1.4609-4.8691 2.6621-0.79883c0.38585-0.10952 0.74284-0.16652 1.0684-0.17188zm-10.707 1.0762-2.4688 0.89258 5.1582 14.262 2.4688-0.89258-5.1582-14.262zm127.59 0.16211c-0.35133 0.00919-0.6987 0.051075-1.0449 0.125-1.099 0.23244-2.0927 0.78947-2.9785 1.6699-0.87928 0.88285-1.5738 2.0178-2.084 3.4062l-0.29492 0.80274c-0.49407 1.3647-0.68769 2.6583-0.58203 3.8809 0.11216 1.225 0.51392 2.286 1.2051 3.1836 0.70007 0.8935 1.6275 1.5526 2.7812 1.9766 1.1668 0.42873 2.2994 0.52541 3.3984 0.29297 1.1079-0.23656 2.0949-0.7899 2.9629-1.6621 0.87037-0.87873 1.5617-2.0152 2.0742-3.4102l0.29102-0.79297c0.50365-1.3908 0.7033-2.6974 0.59765-3.9199-0.10325-1.2291-0.50328-2.2853-1.1992-3.1699-0.68702-0.88871-1.6093-1.5463-2.7695-1.9727-0.79768-0.29311-1.5845-0.43037-2.3574-0.41016zm0.33789 2.2344c0.4089-0.007265 0.82939 0.068938 1.2637 0.22852 1.0951 0.40239 1.7861 1.1326 2.0703 2.1914 0.29071 1.0612 0.14603 2.3816-0.4336 3.959l-0.27344 0.74219c-0.5892 1.6035-1.3346 2.7137-2.2344 3.3301-0.89323 0.61878-1.8874 0.7266-2.9824 0.32422-1.082-0.3976-1.7714-1.1358-2.0703-2.2148-0.29243-1.0766-0.151-2.3965 0.42383-3.9609l0.30078-0.82031c0.5759-1.527 1.3164-2.5989 2.2227-3.2129 0.54339-0.36701 1.1153-0.55579 1.7129-0.56641zm-138.3 1.6191-2.1738 0.93164 0.71094 16.197 2.5195-1.0801-0.26367-3.7305 5.4004-2.3145 2.5312 2.7559 2.5274-1.082-11.252-11.678zm152.38 2.0957c-0.21061 0.003299-0.42208 0.018247-0.63282 0.044922-1.1147 0.13891-2.1505 0.60951-3.1074 1.4121-0.95062 0.80554-1.7378 1.8803-2.3633 3.2207l-0.36133 0.77344c-0.60742 1.3182-0.91035 2.5912-0.9082 3.8184 0.00845 1.2301 0.31867 2.3207 0.93164 3.2734 0.6222 0.94937 1.4916 1.6834 2.6055 2.2031 1.1265 0.52562 2.2466 0.71899 3.3613 0.58008 1.1239-0.14227 2.1553-0.61036 3.0938-1.4062 0.94138-0.80218 1.7251-1.8779 2.3535-3.2246l0.35742-0.76367c0.61917-1.3434 0.92794-2.6283 0.92579-3.8555 7.8e-4 -1.2334-0.30889-2.3196-0.92774-3.2598-0.60962-0.94349-1.4736-1.6765-2.5938-2.1992-0.91013-0.42468-1.8218-0.63148-2.7344-0.61719zm-159.6 1.0156-8.5742 4.3945 6.918 13.498 2.3457-1.2031-2.9316-5.7188 5.4316-2.7832-0.95898-1.873-5.4336 2.7832-2.0566-4.0137 6.2305-3.1934-0.9707-1.8906zm7.4023 0.31445 4.5 4.916-4.0391 1.7324-0.46094-6.6484zm152.58 0.92774c0.46884 0.001552 0.94591 0.11606 1.4297 0.3418 1.0572 0.49332 1.6831 1.2784 1.877 2.3574 0.20017 1.082-0.05501 2.3853-0.76562 3.9082l-0.33399 0.7168c-0.72236 1.5481-1.5593 2.5906-2.5078 3.1289-0.94224 0.54124-1.9408 0.56558-2.998 0.072265-1.0447-0.48745-1.672-1.2804-1.8789-2.3809-0.20059-1.0975 0.05307-2.4018 0.75781-3.9121l0.36914-0.79297c0.70265-1.473 1.5315-2.4783 2.4863-3.0137 0.51215-0.28619 1.0331-0.42754 1.5644-0.42578zm11.395 3.0215-7.5195 13.172 3.791 2.1621c1.1881 0.67829 2.3864 1.0226 3.5957 1.0332 1.2154 0.0141 2.34-0.31005 3.375-0.97461 1.0411-0.66112 1.9182-1.6168 2.6309-2.8652l0.37695-0.66016c0.70231-1.2303 1.0795-2.4621 1.1289-3.6973 0.04941-1.2352-0.23127-2.3712-0.83984-3.4062-0.60255-1.0316-1.4864-1.8785-2.6504-2.543l-3.8887-2.2207zm1.2344 3.1504 1.6016 0.91406c1.1821 0.67477 1.8697 1.5673 2.0606 2.6758 0.19085 1.1085-0.12353 2.3773-0.93945 3.8066l-0.41797 0.73242c-0.81422 1.3983-1.7583 2.2903-2.834 2.6758-1.0662 0.38292-2.2002 0.23198-3.4004-0.45312l-1.4922-0.85156 5.4219-9.5zm54.176 41.225-11.779 9.5547 6.248 7.7012 1.6348-1.3242-4.5879-5.6543 3.625-2.9414 3.9238 4.8379 1.6172-1.3125-3.9238-4.8379 3.252-2.6367 4.541 5.5977 1.6504-1.3379-6.2012-7.6465zm7.6191 9.4844-3.5449 8.0684-8.959 0.51563 1.75 2.5117 6.4336-0.49414-2.7012 5.8535 1.7559 2.5215 3.5957-8.2168 8.791-0.53711-1.7383-2.4961-6.3184 0.51562 2.6738-5.7461-1.7383-2.4961zm6.748 14.592c-0.21704-9.3e-4 -0.43767 0.01003-0.66211 0.03125-1.197 0.11317-2.4138 0.53133-3.6484 1.2539l-1.2227 0.71484c-1.1942 0.72301-2.1208 1.5666-2.7793 2.5312-0.65857 0.96469-1.0047 1.988-1.0391 3.0703-0.02495 1.0848 0.26859 2.1485 0.87891 3.1914 0.8734 1.4924 1.9623 2.4613 3.2676 2.9043 1.3113 0.43952 2.7041 0.31628 4.1777-0.36914l-1.3262-2.2656c-1.0051 0.42734-1.8412 0.53286-2.5059 0.31836-0.66463-0.2145-1.2567-0.76712-1.7793-1.6602-0.57176-0.97693-0.63645-1.9384-0.19141-2.8828 0.44855-0.9384 1.3805-1.8206 2.7949-2.6484l1.1602-0.67968c1.4035-0.80526 2.6186-1.1534 3.6465-1.0469 1.0374 0.109 1.8451 0.65756 2.4238 1.6465 0.4981 0.85108 0.66546 1.6177 0.50195 2.3008-0.15398 0.68554-0.66903 1.357-1.5469 2.0156l1.3262 2.2656c1.3483-0.98217 2.1562-2.1438 2.4258-3.4844s-0.01794-2.7314-0.86328-4.1758c-0.62786-1.0728-1.4358-1.8716-2.4258-2.3945-0.80152-0.42005-1.6728-0.63268-2.6133-0.63672zm-321.01 2.4062c-0.45176 0.00229-0.89499 0.08667-1.3262 0.25391-1.1498 0.44595-2.1518 1.4326-3.0078 2.959l-2.6094 4.6523 13.229 7.418 1.2891-2.2988-5.0957-2.8574 1.4355-2.5625 6.5859 0.20508 1.3809-2.4609-0.11914-0.0664-7.1797-0.12305c0.107-0.94321-0.019203-1.7939-0.375-2.5508-0.35846-0.76633-0.97897-1.3966-1.8633-1.8926-0.81011-0.45433-1.5908-0.6796-2.3438-0.67578zm-0.24024 2.627c0.44305-0.00366 0.90733 0.13106 1.3945 0.4043 0.67838 0.38045 1.0931 0.89779 1.2422 1.5547 0.14307 0.6535-0.002698 1.3692-0.4375 2.1445l-1.3262 2.3613-4.4336-2.4863 1.3613-2.4258c0.4605-0.79273 0.99558-1.2805 1.6074-1.4629 0.19226-0.05888 0.39041-0.08818 0.5918-0.08985zm330.66 6.252-13.633 6.6465 4.3438 8.9141 1.8926-0.92187-3.1914-6.5469 4.1953-2.043 2.7305 5.5977 1.8711-0.91211-2.7285-5.5996 3.7637-1.834 3.1582 6.4785 1.9102-0.92968-4.3125-8.8496zm-336.53 4.4922c-1.2334 0.00869-2.3186 0.32512-3.2539 0.95118-0.93878 0.61684-1.6656 1.4891-2.1797 2.6133-0.51406 1.1242-0.69582 2.2464-0.54492 3.3691 0.14747 1.1136 0.62757 2.1469 1.4375 3.0976 0.81282 0.9444 1.8911 1.7228 3.2363 2.3379l0.77734 0.35547c1.3228 0.59729 2.5971 0.8905 3.8242 0.87891 1.23-0.01789 2.3196-0.33675 3.2676-0.95703 0.94456-0.62948 1.6724-1.5033 2.1836-2.6211 0.51695-1.1305 0.70021-2.2536 0.55273-3.3672-0.1509-1.1228-0.62661-2.1497-1.4297-3.082-0.80939-0.9352-1.8907-1.712-3.2422-2.3301l-0.76758-0.34961c-1.3481-0.60884-2.6343-0.90808-3.8613-0.89649zm-0.24805 2.5078c0.89428 0.01377 1.9143 0.28247 3.0605 0.80664l0.7207 0.32812c1.5536 0.71045 2.6029 1.5381 3.1484 2.4824 0.54845 0.93806 0.58089 1.939 0.095703 3-0.47941 1.0484-1.2684 1.6792-2.3672 1.8945-1.0959 0.20901-2.4023-0.03344-3.918-0.72656l-0.79492-0.36328c-1.4784-0.69131-2.4905-1.5122-3.0332-2.4629-0.54611-0.95989-0.58105-1.9584-0.10742-2.9941 0.48518-1.061 1.2663-1.6924 2.3438-1.8945 0.2701-0.05212 0.55347-0.07491 0.85156-0.07031zm342.39 4.8555-14.061 5.6836 3.5684 8.8281 1.9512-0.78906-2.582-6.3828 12.111-4.8965-0.98828-2.4434zm-347.81 7.0254c-0.23515 7.5e-4 -0.46824 0.01304-0.69726 0.03515-1.228 0.11563-2.2807 0.52566-3.1582 1.2305-0.88175 0.69594-1.5287 1.6265-1.9434 2.791-0.41463 1.1645-0.49966 2.2988-0.25195 3.4043 0.24349 1.0966 0.80989 2.0821 1.6992 2.959 0.89166 0.87035 2.0343 1.5546 3.4277 2.0508l0.80469 0.28711c1.3696 0.4803 2.6653 0.66091 3.8867 0.54297 1.2238-0.1245 2.2813-0.53618 3.1719-1.2363 0.88641-0.70902 1.5369-1.6428 1.9492-2.8008 0.41696-1.171 0.50326-2.3058 0.25977-3.4024-0.2477-1.1055-0.81246-2.0881-1.6934-2.9473-0.88744-0.86148-2.0316-1.5406-3.4316-2.0391l-0.79492-0.28321c-1.1341-0.39781-2.2095-0.59507-3.2285-0.59179zm-0.49805 2.543c0.84032-0.02133 1.8041 0.16128 2.8926 0.54883l0.74609 0.26563c1.6094 0.57303 2.7261 1.3057 3.3516 2.1992 0.62774 0.88695 0.74681 1.8814 0.35547 2.9805-0.38668 1.086-1.1193 1.7839-2.1953 2.0937-1.0736 0.30327-2.3947 0.1743-3.9648-0.38476l-0.82422-0.29297c-1.5327-0.56049-2.6113-1.2914-3.2344-2.1914-0.6273-0.90891-0.74921-1.8998-0.36719-2.9726 0.39134-1.0991 1.114-1.795 2.1699-2.0898 0.3307-0.09418 0.68835-0.14655 1.0703-0.15625zm352.89 2.1406-14.416 4.7148 2.9609 9.0508 2-0.65429-2.1406-6.5449 12.414-4.0606-0.81836-2.5059zm-357.75 9.3809c-0.8543 0.00771-1.6439 0.25547-2.3711 0.74219-1.1063 0.73494-1.8759 1.9203-2.3086 3.5586l-1.4824 5.6113 14.664 3.8711 0.67383-2.5469-5.4492-1.4395 0.80078-3.0312c0.4486-1.6987 0.39841-3.1244-0.15234-4.2754-0.54898-1.1577-1.5417-1.9252-2.9785-2.3047-0.48238-0.12739-0.94899-0.18959-1.3965-0.18555zm-0.10938 2.6328c0.26974-0.00149 0.5525 0.03677 0.84961 0.11524 0.80571 0.21277 1.3602 0.61488 1.6641 1.2051 0.2971 0.58842 0.32531 1.3358 0.085937 2.2422l-0.80859 3.0625-5.1152-1.3516 0.82617-3.1328c0.23684-0.84246 0.65734-1.4413 1.2617-1.7988 0.37354-0.22457 0.78676-0.33932 1.2363-0.3418zm361.65 0.00586-14.709 3.6973 2.418 9.6191 2.0391-0.51368-1.7754-7.0625 4.5273-1.1367 1.5176 6.041 2.0215-0.50781-1.5195-6.041 4.0606-1.0215 1.7578 6.9902 2.0606-0.51757-2.3984-9.5469zm3.123 12.9-14.957 2.5176 0.4375 2.5977 10.611-1.7852-9.4883 8.4531 0.4375 2.5977 14.955-2.5176-0.43359-2.5781-10.652 1.793 9.5273-8.4805-0.4375-2.5977zm2.3652 14.828-2.1172 0.17968 0.39648 4.6699-12.994 1.1074 0.2207 2.6055 12.996-1.1074 0.40039 4.7129 2.1172-0.18165-1.0195-11.986z" fill="#666"/></g><g id="hand" transform="matrix(.28946 0 0 .28839 126 -138.93)"><path d="m-253.45 566.27c-1.858 2e-3 -3.7288 2.2916-3.7828 5.1506l-14.79 85.096c-0.58463 3.3637-0.30092 4.8301-0.31528 8.1508 0 10.432 8.4567 18.888 18.888 18.888 10.432 0 18.888-8.9443 18.888-19.376 0-3.3866 0.21618-4.1153-0.4047-7.5835l-15.237-85.113c1.5e-4 -2.8995-1.4061-5.2129-3.2465-5.213z"/><path d="m-253.45 566.27c-1.858 2e-3 -3.7288 2.2916-3.7828 5.1506l-14.79 85.096c-0.58463 3.3637-0.61848 4.7142-0.31528 8.151 0 10.432 8.4567 18.888 18.888 18.888z" fill="#666"/><circle cx="-253.45" cy="664.67" r="9.7464" fill="#666"/><path d="m-253.45 654.92a9.7464 9.7464 0 0 0-9.7464 9.7464 9.7464 9.7464 0 0 0 9.7464 9.7464z"/></g>
</svg>
