<?xml version="1.0" encoding="UTF-8"?>
<svg version="1.1" viewBox="0 0 300 150" xmlns="http://www.w3.org/2000/svg"><path d="m146.38 132.22c0 2.9201-20.82 5.2861-46.503 5.2861s-46.503-2.366-46.503-5.2861c0-2.9193 20.82-5.286 46.503-5.286 25.682 0 46.503 2.3667 46.503 5.286z" fill="#b68c62" stroke-width=".75237"/><g transform="matrix(.98977 0 0 .99652 -21.988 -23.373)" stroke-width=".75757"><path d="m300.24 166.15c0 2.9303-21.035 5.3053-46.984 5.3053s-46.984-2.375-46.984-5.3053c0-2.9295 21.035-5.3045 46.984-5.3045s46.984 2.375 46.984 5.3045z" fill="#b68c62"/><path d="m256.72 69.985c-2.3651-19.87-20.817-6.1492-20.817-6.1492-12.721 14.63-5.9901 20.273-0.20985 22.407-0.63863 3.6492-2.2598 15.261 2.1023 19.227l4.2575-1.8924s-2.6894-7.3636 0.29773-16.123c17.52-0.75908 14.369-17.47 14.369-17.47" fill="#d8232a"/><path d="m241.67 82.757s-16.057-1.2568-3.4621-15.74c0 0 12.276-9.131 13.851 4.0909 0 0 2.2038 11.649-10.389 11.649" fill="#fffffe"/><path d="m287 69.985c-2.3651-19.87-20.817-6.1492-20.817-6.1492-12.721 14.63-5.9924 20.273-0.20984 22.407-0.64015 3.6492-2.2614 15.261 2.1022 19.227l4.2576-1.8924s-2.6894-7.3636 0.29772-16.123c17.519-0.75908 14.369-17.47 14.369-17.47" fill="#d8232a"/><path d="m251.99 70.219c0 3.5288-0.47348 8.2802-6.15 7.8068-2.8636-0.24015-6.1515-3.0947-6.1515-6.625 0-3.5265 4.2234-7.5681 7.0969-7.5681 2.875 0 5.2045 2.8598 5.2045 6.3863" fill="#020604"/><path d="m271.95 82.757s-16.054-1.2568-3.4613-15.74c0 0 12.278-9.131 13.851 4.0909 0 0 2.2045 11.649-10.39 11.649" fill="#fffffe"/><path d="m282.27 70.219c0 3.5288-0.47348 8.2802-6.1492 7.8068-2.8659-0.24015-6.1515-3.0947-6.1515-6.625 0-3.5265 4.2212-7.5681 7.0962-7.5681s5.2045 2.8598 5.2045 6.3863" fill="#020604"/></g><g transform="matrix(.74982 0 0 .75494 -35.515 -349.37)" fill="#d8232a"><path d="m393.13 581.02s26.852-22.482 31.225-46.84c0 0 4.997 21.858 0.625 35.598 0 0 13.74-2.498 22.482 4.372 0 0-18.11 16.24-54.332 6.87"/><path d="m317.57 576.02s-16.238-18.733-4.998-70.57c0 0-20.607 2.5-23.107 28.727 0 0-15.61-9.368-16.235-13.738 0 0-12.49 58.081 44.34 55.581"/><path d="m400 596.64s21.858-11.242 38.721 6.245c0 0-27.481-6.248-40.595 5.62 0 0-4.995-9.993 1.874-11.865"/><path d="m400.06 608.69s24.578-0.042 31.615 23.208c0 0-21.61-18.083-38.692-13.495 0 0 0.107-11.17 7.077-9.713"/><path d="m396.87 620.4s26.022 4.065 31.417 28.852c0 0-21.277-21.975-39.77-20.175 0 0 1.103-11.325 8.353-8.677"/><path d="m307.59 594.14s-23.49-11.243-41.61 6.244c0 0 29.53-6.247 43.625 5.62 0 0 5.367-9.992-2.015-11.864"/><path d="m307.53 606.2s-26.412-0.045-33.975 23.207c0 0 23.223-18.085 41.58-13.495 0 0-0.115-11.17-7.605-9.712"/><path d="m310.96 617.9s-27.965 4.065-33.762 28.852c0 0 22.868-21.977 42.737-20.175 0 0-1.182-11.325-8.975-8.677"/><path d="m346.3 644.72s-41.842 4.373-38.72-46.213c0 0 0.625-35.597 44.965-36.222 0 0 48.088-1.872 47.463 38.095 0 0 4.995 49.958-53.708 44.34"/></g><path d="m209.63 87.859s4.2139 3.2991 8.428-3.3014" fill="#f8d5bb" stroke-width=".75237"/><path d="m209.63 87.859s4.2139 3.2991 8.428-3.3014" fill-opacity="0" stroke="#f8d5bb" stroke-linecap="round" stroke-linejoin="round" stroke-width="2.2518"/><path d="m249.7 94.754s-5.3215 0.43786-5.2577-7.4082" fill="#f8d5bb" stroke-width=".75237"/><path d="m249.7 94.754s-5.3215 0.43786-5.2577-7.4082" fill-opacity="0" stroke="#f8d5bb" stroke-linecap="round" stroke-linejoin="round" stroke-width="2.2518"/><path d="m246.15 93.05s-14.516 9.901-31.374-5.1849c0 0 1.4037 55.631 31.374 5.1849" fill="#f8d5bb" stroke-width=".75237"/><path d="m246.15 93.05s-14.516 9.901-31.374-5.1849c0 0 1.4037 55.631 31.374 5.1849z" fill-opacity="0" stroke="#f8d5bb" stroke-linecap="round" stroke-linejoin="round" stroke-width="2.2518"/><g transform="matrix(.98977 0 0 .99652 -18.029 -23.373)" stroke-width=".75757"><path d="m85.771 46.53c-12.544-19.525-24.827 4.1416-24.827 4.1416-5.8469 21.704 4.0341 24.179 11.144 23.473 1.1856 4.1288 5.3803 17.059 11.941 18.985l3.481-4.1341s-6.5378-6.3144-7.8651-16.964c17.886-9.6742 6.1265-25.501 6.1265-25.501" fill="#d8232a"/><path d="m76.552 67.485s-17.381 6.8295-11.593-14.659c0 0 8.1765-15.75 16.523-2.7576 0 0 8.2045 11.03-4.9295 17.417" fill="#fffffe"/><path d="m117.35 31.174c-12.544-19.523-24.828 4.1439-24.828 4.1439-5.8462 21.706 4.0341 24.179 11.142 23.471 1.1871 4.1325 5.3825 17.063 11.943 18.987l3.481-4.1326s-6.5401-6.3143-7.8658-16.967c17.886-9.6734 6.1272-25.503 6.1272-25.503" fill="#d8232a"/><path d="m79.775 54.196c1.7879 3.6788 3.7045 8.8772-2.4568 11.26-3.1076 1.2023-7.9825-0.10833-9.7727-3.7878-1.7901-3.6803 0.56439-10.036 3.5621-11.492 2.9985-1.4583 6.8772 0.34242 8.6674 4.0204" fill="#020604"/><path d="m108.13 52.129s-17.38 6.8295-11.592-14.661c0 0 8.1757-15.748 16.52-2.7576 0 0 8.2068 11.032-4.928 17.419" fill="#fffffe"/><path d="m111.47 39.168c1.7894 3.678 3.706 8.8734-2.4553 11.26-3.1091 1.2023-7.984-0.11213-9.7719-3.7901-1.7901-3.6772 0.56363-10.033 3.5621-11.49 2.9977-1.4606 6.8772 0.33863 8.6651 4.0204" fill="#020604"/></g><g transform="matrix(.74982 0 0 .75494 -31.556 -349.37)" fill="#d8232a"><path d="m197.85 534.13s16.604-37.063 8.812-64.68c0 0 16.295 20.258 18.703 36.805 0 0 13.059-9.575 25.662-6.843 0 0-10.653 26.118-53.177 34.718"/><path d="m116.51 567.24s-26.433-11.303-40.995-71.06c0 0-20.225 13.055-9.53 41.675 0 0-21.03-1.851-23.9-6.093 0 0 16.427 66.898 74.425 35.478"/><path d="m212.93 546.93s17.095-22.805 43.547-13.123c0 0-31.825 7.423-39.485 26.445 0 0-10.275-7.885-4.062-13.322"/><path d="m219.1 559.48s25.607-12.507 44.737 8.168c0 0-31.705-7.903-47.195 5.547 0 0-5.552-11.705 2.458-13.715"/><path d="m221.71 573.31s29.202-8.955 47.395 14.158c0 0-33.336-12.128-51.703-0.873 0 0-4.595-12.37 4.308-13.285"/><path d="m115.29 591.19s-30.198 0.188-40.228 27.613c0 0 27.627-21.49 48.342-16.26 0 0 0.533-13.143-8.114-11.353"/><path d="m121.35 603.79s-27.565 13.347-23.662 41.43c0 0 15.047-30.633 36.52-35.16 0 0-5.785-11.59-12.858-6.27"/><path d="m130.86 614.26s-27.103 18.42-20.58 47.208c0 0 12.705-34.513 34.34-42.711 0 0-6.978-11.209-13.76-4.497"/><path d="m181.3 624.31s-41.418 25.78-63.813-28.56c0 0-17.4-37.44 28.525-60.573 0 0 49.197-26.337 68.812 15.66 0 0 30.545 49.568-33.524 73.473"/></g><path d="m64.316 77.734s6.0586 1.2909 7.1285-7.7434" fill="#f8d5bb" stroke-width=".75237"/><path d="m64.316 77.734s6.0586 1.2909 7.1285-7.7434" fill-opacity="0" stroke="#f8d5bb" stroke-linecap="round" stroke-linejoin="round" stroke-width="2.6108"/><path d="m109.58 64.471s-5.3274 3.1737-9.213-5.0399" fill="#f8d5bb" stroke-width=".75237"/><path d="m109.58 64.471s-5.3274 3.1737-9.213-5.0399" fill-opacity="0" stroke="#f8d5bb" stroke-linecap="round" stroke-linejoin="round" stroke-width="2.6108"/><path d="m105.02 64.501s-10.153 17.735-35.332 10.611c0 0 29.484 57.297 35.332-10.611" fill="#f8d5bb" stroke-width=".75237"/><path d="m105.02 64.501s-10.153 17.735-35.332 10.611c0 0 29.484 57.297 35.332-10.611z" fill-opacity="0" stroke="#f8d5bb" stroke-linecap="round" stroke-linejoin="round" stroke-width="2.6108"/></svg>
