<?xml version="1.0" encoding="UTF-8"?>
<svg width="200" height="140" version="1.1" viewBox="0 0 187.5 131.25" xmlns="http://www.w3.org/2000/svg"><path d="m33.147 77.853c0.18719-1.6153 1.6015-0.40334 3.367-0.19619 14.764 7.1594 18.853-0.67046 17.368-0.89182-12.278 0.12303-20.234-6.3344-20.555-10.645 8.0555-12.805 20.731-22.775 35.547-25.883 6.7152-1.6153 13.692-2.3535 20.099-5.0953 5.6951-8.2348 15.155-15.774 25.604-14.14 6.2459 4.6842-2.0293 11.762-3.9595 16.697-1.283 4.7226 7.8552 4.2695 11.985 6.6387 11.603 4.5306 22.773 10.571 32.157 18.921 6.4928-10.294 19.237-17.281 31.33-14.771-0.9412 4.0843-7.9717 6.9529-10.12 11.7-4.2531 5.7537-5.9776 14.195-1.2727 20.263 2.4456 5.4934 10.199 9.4632 11.567 13.836-5.982 5.4134-15.085 1.802-20.568-2.6002-4.6188-2.4861-7.1656-10.278-11.887-10.57-9.0882 10.667-22.464 15.381-35.323 19.96-4.5093 1.393-15.828 2.9957-6.8592 8.4201 2.6648 2.1018 9.4344 5.806 2.3883 6.9124-8.5975 2.4671-15.52-4.5637-20.351-10.715-14.094-3.9577-30.111-1.4833-42.952-9.8901-7.333-4.24-12.911-10.938-17.565-17.951z" fill="#5fbcd3" stroke-width=".93813"/><path d="m112.64 20.801c-9.6692-0.48797-18.317 6.6204-23.657 14.34-3.6108 1.5452-7.4049 2.4446-11.228 3.2327 8.885 8.6653 13.765 19.665 13.769 31.035-0.01837 12.473-5.9015 24.45-16.401 33.389 6.272 0.68404 12.585 1.2192 18.554 2.8954 4.831 6.1507 11.753 13.182 20.351 10.716 7.0462-1.1064 0.27645-4.8116-2.3884-6.9134-8.1024-6.1356 2.5279-6.8775 7.6275-8.6936 12.622-4.4953 25.648-9.2311 34.555-19.686 4.7207 0.29237 7.2669 8.0837 11.885 10.57 5.4829 4.4022 14.587 8.0148 20.569 2.6014-1.3678-4.3722-9.1225-8.342-11.568-13.835-4.7048-6.0686-2.9804-14.511 1.2726-20.265 2.1486-4.7475 9.1801-7.615 10.122-11.699-12.093-2.51-24.838 4.4766-31.33 14.771-9.3845-8.3495-20.554-14.39-32.157-18.92-4.1063-2.2485-13.268-1.9158-11.985-6.6384 1.9302-4.9344 10.206-12.014 3.9596-16.698-0.65305-0.10213-1.3036-0.16811-1.9483-0.20064z" fill="#08a" stroke-width=".8795"/><path d="m79.096 99.022c6.6654-7.7057 12.298-17.389 11.977-28.358-0.07864-9.4698-3.3813-18.635-8.2558-26.227-0.31508-0.49578-0.49204-0.81749-0.75376-1.2592-0.09849-0.16621 0.46408 0.30752 1.1667 0.98325 3.1215 3.1388 5.9435 6.7095 7.9064 10.89 4.3974 8.9832 5.4282 20.381 1.3919 29.76-2.4923 5.7876-7.009 10.164-11.948 13.256-0.58526 0.34402-0.8725 0.67589-1.4847 0.95529z" fill="#d5f6ff" stroke-width=".93813"/><ellipse cx="60.109" cy="49.725" rx="8.7305" ry="8.852" fill="#fff" stroke="#08a" stroke-width="1.875"/><ellipse cx="61.694" cy="48.897" rx="5.0005" ry="5.0703" stroke-linecap="round" stroke-width=".65454"/><path d="m56.672 71.223c-1.5678 1.8214-2.8475 3.6349-2.7898 5.5418 1.9999 1.0959 4.1456 2.1732 7.0737 2.5078-1.5018-0.97424-2.6761-1.4935-4.7901-3.219 0.16868-1.6102 0.33737-3.2205 0.50604-4.8308z" fill="#08a" stroke-width=".93816"/><g transform="matrix(1.155 0 0 1.155 -.17826 -.066462)"><path d="m3.9886 27.305a3.8335 3.8335 0 0 0-3.8342 3.8324 3.8335 3.8335 0 0 0 2.5323 3.5962c-0.035175 3.0653-0.17048 6.1304-0.13733 9.1956 0.76902 3.8959 3.659 5.9824 6.8591 5.2515 1.8125-0.5992 3.6493-1.7133 4.3707-3.5706 0.75493-1.867 0.7152-3.9274 0.65735-5.9052-0.13298-1.5556-0.60899-3.0962-1.4667-4.4073-0.72414 2.6126-1.885 5.0956-3.3527 7.3718 0.87218-0.27952 1.7258-0.61877 2.6111-0.85693 0.87843 2.4521-1.7153 5.1005-3.739 4.9768-1.3596-0.08521-2.8115-0.90382-3.1494-2.3053-0.35216-1.3671-0.10882-2.7883-0.13367-4.1803 0.037963-1.8566 0.068168-3.7135 0.10803-5.5701a3.8335 3.8335 0 0 0 2.5067-3.5962 3.8335 3.8335 0 0 0-3.8324-3.8324zm0 1.9281a1.9051 1.9051 0 0 1 1.9043 1.9043 1.9051 1.9051 0 0 1-1.9043 1.9061 1.9051 1.9051 0 0 1-1.9061-1.9061 1.9051 1.9051 0 0 1 1.9061-1.9043z" fill="#999" stroke-width=".058391"/><path d="m2.9668 0.057544h1.8718v29.465c-0.94194 1.8133-1.3943 0.83496-1.8718 0z" fill="#b68c62" stroke-linecap="round" stroke-linejoin="round" stroke-width=".67157"/></g><g transform="rotate(-1.9533 84.606 -181.37)" fill="#0ff" stroke-linecap="round" stroke-linejoin="round"><path d="m22.472 29.677a3.3473 3.3473 0 0 0-4.7339 0 3.3473 3.3473 0 0 0 0 4.7339 3.3473 3.3473 0 0 0 4.7339 0 3.3473 3.3473 0 0 0 0-4.7339zm-0.39191 0.39191a2.7932 2.7932 0 0 1 0 3.9501 2.7932 2.7932 0 0 1-3.9501 0 2.7932 2.7932 0 0 1 0-3.9501 2.7932 2.7932 0 0 1 3.9501 0zm0.17108 0.98852a3.3473 3.3473 0 0 1-0.95794 1.9797 3.3473 3.3473 0 0 1-2.4893 0.97205 2.3627 2.3627 0 0 0 2.972-0.29444 2.3627 2.3627 0 0 0 0.47527-2.6574z" stroke-width=".25296"/><path d="m27.95 39.586a4.2057 4.2057 0 0 0-5.9478 0 4.2057 4.2057 0 0 0 0 5.9478 4.2057 4.2057 0 0 0 5.9478 0 4.2057 4.2057 0 0 0 0-5.9478zm-0.49242 0.49242a3.5094 3.5094 0 0 1 0 4.963 3.5094 3.5094 0 0 1-4.963 0 3.5094 3.5094 0 0 1 0-4.963 3.5094 3.5094 0 0 1 4.963 0zm0.21496 1.242a4.2057 4.2057 0 0 1-1.2036 2.4874 4.2057 4.2057 0 0 1-3.1276 1.2213 2.9686 2.9686 0 0 0 3.7341-0.36994 2.9686 2.9686 0 0 0 0.59715-3.3388z" stroke-width=".31782"/><path d="m34.155 23.404a5.5998 5.5998 0 0 0-7.9194 0 5.5998 5.5998 0 0 0 0 7.9194 5.5998 5.5998 0 0 0 7.9194 0 5.5998 5.5998 0 0 0 0-7.9194zm-0.65563 0.65564a4.6728 4.6728 0 0 1 0 6.6081 4.6728 4.6728 0 0 1-6.6081 0 4.6728 4.6728 0 0 1 0-6.6081 4.6728 4.6728 0 0 1 6.6081 0zm0.2862 1.6537a5.5998 5.5998 0 0 1-1.6025 3.3119 5.5998 5.5998 0 0 1-4.1644 1.6262 3.9526 3.9526 0 0 0 4.9718-0.49257 3.9526 3.9526 0 0 0 0.79509-4.4455z" stroke-width=".42318"/><path d="m22.325 15.211a4.2057 4.2057 0 0 0-5.9478 0 4.2057 4.2057 0 0 0 0 5.9478 4.2057 4.2057 0 0 0 5.9478 0 4.2057 4.2057 0 0 0 0-5.9478zm-0.49242 0.49242a3.5094 3.5094 0 0 1 0 4.963 3.5094 3.5094 0 0 1-4.963 0 3.5094 3.5094 0 0 1 0-4.963 3.5094 3.5094 0 0 1 4.963 0zm0.21496 1.242a4.2057 4.2057 0 0 1-1.2036 2.4874 4.2057 4.2057 0 0 1-3.1276 1.2213 2.9686 2.9686 0 0 0 3.7341-0.36994 2.9686 2.9686 0 0 0 0.59715-3.3388z" stroke-width=".31782"/><path d="m29.972 9.0521a3.3473 3.3473 0 0 0-4.7339 0 3.3473 3.3473 0 0 0 0 4.7339 3.3473 3.3473 0 0 0 4.7339 0 3.3473 3.3473 0 0 0 0-4.7339zm-0.39191 0.39191a2.7932 2.7932 0 0 1 0 3.9501 2.7932 2.7932 0 0 1-3.9501 0 2.7932 2.7932 0 0 1 0-3.9501 2.7932 2.7932 0 0 1 3.9501 0zm0.17108 0.98852a3.3473 3.3473 0 0 1-0.95794 1.9797 3.3473 3.3473 0 0 1-2.4893 0.97205 2.3627 2.3627 0 0 0 2.972-0.29444 2.3627 2.3627 0 0 0 0.47527-2.6574z" stroke-width=".25296"/><path d="m22.472 52.177a3.3473 3.3473 0 0 0-4.7339 0 3.3473 3.3473 0 0 0 0 4.7339 3.3473 3.3473 0 0 0 4.7339 0 3.3473 3.3473 0 0 0 0-4.7339zm-0.39191 0.39191a2.7932 2.7932 0 0 1 0 3.9501 2.7932 2.7932 0 0 1-3.9501 0 2.7932 2.7932 0 0 1 0-3.9501 2.7932 2.7932 0 0 1 3.9501 0zm0.17108 0.98852a3.3473 3.3473 0 0 1-0.95794 1.9797 3.3473 3.3473 0 0 1-2.4893 0.97205 2.3627 2.3627 0 0 0 2.972-0.29444 2.3627 2.3627 0 0 0 0.47527-2.6574z" stroke-width=".25296"/><path d="m19.054 63.483a2.216 2.216 0 0 0-3.134 0 2.216 2.216 0 0 0 0 3.134 2.216 2.216 0 0 0 3.134 0 2.216 2.216 0 0 0 0-3.134zm-0.25945 0.25946a1.8492 1.8492 0 0 1 0 2.615 1.8492 1.8492 0 0 1-2.6151 0 1.8492 1.8492 0 0 1 0-2.615 1.8492 1.8492 0 0 1 2.6151 0zm0.11326 0.65443a2.216 2.216 0 0 1-0.63418 1.3106 2.216 2.216 0 0 1-1.648 0.64353 1.5642 1.5642 0 0 0 1.9675-0.19493 1.5642 1.5642 0 0 0 0.31464-1.7592z" stroke-width=".16746"/><path d="m35.929 16.608a2.216 2.216 0 0 0-3.134 0 2.216 2.216 0 0 0 0 3.134 2.216 2.216 0 0 0 3.134 0 2.216 2.216 0 0 0 0-3.134zm-0.25945 0.25946a1.8492 1.8492 0 0 1 0 2.615 1.8492 1.8492 0 0 1-2.6151 0 1.8492 1.8492 0 0 1 0-2.615 1.8492 1.8492 0 0 1 2.6151 0zm0.11326 0.65443a2.216 2.216 0 0 1-0.63418 1.3106 2.216 2.216 0 0 1-1.648 0.64353 1.5642 1.5642 0 0 0 1.9675-0.19493 1.5642 1.5642 0 0 0 0.31464-1.7592z" stroke-width=".16746"/></g><g transform="translate(1.875)" fill="#d5f6ff"><path d="m98.067 95.721c2.0416-0.98614 3.7831-2.2559 3.7423-3.7685 0.0246-1.3037-0.92105-2.6014-2.3468-3.7-0.0922-0.07171-0.14367-0.11793-0.22006-0.1816-0.0287-0.02395 0.1379 0.04747 0.3455 0.14823 0.92179 0.46648 1.7514 0.98907 2.3199 1.5861 1.2754 1.2847 1.5271 2.8643 0.26684 4.1098-0.77816 0.76857-2.1573 1.3205-3.6568 1.6911-0.17758 0.04081-0.26556 0.0833-0.45088 0.11494z" stroke-width=".19085"/><path d="m98.626 80.595c2.0416-0.98614 3.7831-2.2559 3.7423-3.7685 0.0246-1.3037-0.92106-2.6014-2.3468-3.7-0.0922-0.07171-0.14366-0.11793-0.22006-0.1816-0.0287-0.02395 0.13791 0.04747 0.3455 0.14823 0.92179 0.46648 1.7514 0.98907 2.3199 1.5861 1.2754 1.2847 1.5271 2.8643 0.26683 4.1098-0.77816 0.76857-2.1573 1.3205-3.6568 1.6911-0.17757 0.04081-0.26556 0.0833-0.45088 0.11494z" stroke-width=".19085"/><path d="m107.7 88.438c2.1106-1.0194 3.9109-2.3321 3.8687-3.8958 0.0254-1.3477-0.95218-2.6892-2.4261-3.8249-0.0952-0.07413-0.14851-0.12192-0.22748-0.18774-0.0296-0.02477 0.14256 0.04906 0.35717 0.15324 0.95291 0.48224 1.8106 1.0225 2.3982 1.6396 1.3185 1.3281 1.5787 2.961 0.27586 4.2486-0.80445 0.79453-2.2302 1.3651-3.7804 1.7482-0.18357 0.04219-0.27452 0.08612-0.4661 0.11883z" stroke-width=".1973"/><g stroke-width=".1527"><path d="m117.63 93.532c1.6334-0.78899 3.0268-1.8049 2.9941-3.0151 0.0196-1.0431-0.73693-2.0813-1.8777-2.9603-0.0737-0.05737-0.11495-0.09436-0.17606-0.1453-0.0229-0.01917 0.11034 0.03797 0.27642 0.11859 0.7375 0.37322 1.4013 0.79134 1.8561 1.269 1.0204 1.0279 1.2218 2.2916 0.21349 3.2882-0.62259 0.61492-1.726 1.0565-2.9258 1.353-0.14207 0.03265-0.21247 0.06664-0.36074 0.09196z"/><path d="m119.5 83.906c1.6334-0.78899 3.0268-1.8049 2.9941-3.0151 0.0196-1.0431-0.73692-2.0813-1.8777-2.9603-0.0737-0.05737-0.11495-0.09436-0.17606-0.1453-0.0229-0.01916 0.11034 0.03797 0.27643 0.1186 0.7375 0.37322 1.4013 0.79134 1.8561 1.269 1.0204 1.0279 1.2218 2.2916 0.21349 3.2882-0.62259 0.61492-1.726 1.0565-2.9258 1.353-0.14206 0.03265-0.21247 0.06664-0.36073 0.09196z"/><path d="m128.4 89.082c1.6334-0.78899 3.0268-1.8049 2.9941-3.0151 0.0196-1.0431-0.73694-2.0813-1.8777-2.9603-0.0737-0.05737-0.11495-0.09436-0.17607-0.1453-0.023-0.01916 0.11034 0.03797 0.27643 0.11859 0.73751 0.37322 1.4013 0.79134 1.8561 1.269 1.0204 1.0279 1.2218 2.2916 0.21351 3.2882-0.6226 0.61492-1.726 1.0565-2.9258 1.353-0.14206 0.03265-0.21247 0.06664-0.36074 0.09196z"/></g></g><path d="m136.92 126.23c0 1.5702-18.168 2.8424-40.579 2.8424s-40.579-1.2722-40.579-2.8424c0-1.5697 18.168-2.8423 40.579-2.8423 22.41 0 40.579 1.2726 40.579 2.8423z" fill="#e3dbdb" stroke-width=".51537"/></svg>
