<?xml version="1.0" encoding="UTF-8"?>
<svg version="1.1" viewBox="0 0 128 128" xml:space="preserve" xmlns="http://www.w3.org/2000/svg">
<g transform="matrix(.22136 0 0 .22136 .046185 -.13911)" fill="#1e90ff">
	<g fill="#1e90ff">
		<path d="m533.32 160.38c-1.115-35.852-5.9889-72.362-18.201-106.22-18.574-21.926-49.35 5.059-71.366 10.776-26.553 10.862-50.018 28.245-75.871 39.98-25.945 0.57882-51.663-6.963-77.853-5.1495-26.713-0.81321-53.229 3.8914-79.628 5.9232-24.998-11.664-47.601-29.082-73.429-39.731-22.286-5.6836-55.236-32.802-73.815-13.458-12.928 39.445-20.644 80.967-18.404 122.56-4.9955 22.698-25.925 37.961-32.279 60.553-20.656 54.488-13.844 115.93 4.4393 170.1 21.488 64.361 82.374 108.39 147.54 120.71 60.864 11.804 123.24 5.7302 184.81 6.8239 69.588-1.0053 145.77-22.413 187.73-81.965 36.329-50.768 45.665-116.69 39.104-177.61-3.5765-31.634-19.853-59.444-37.103-85.377-4.2126-8.6531-5.929-18.341-5.6708-27.92zm-71.273 309.26c-34.058 27.002-79.81 30.592-121.53 34.578-63.261 0.88551-128.39 4.8781-189.39-15.435-49.63-14.276-77.875-67.425-73.96-116.91 0.94396-45.225 37.292-91.563 85.181-89.782 74.709-7.2904 149.92 6.3953 224.55-2.8 40.038-0.66672 88.304 11.011 104.72 52.202 18.404 46.271 10.847 105.56-29.576 138.15z"/>
		<ellipse cx="390.03" cy="385.55" rx="42.124" ry="56.298"/>
		<ellipse cx="189.03" cy="385.55" rx="42.13" ry="56.298"/>
	</g>
</g>















</svg>
