<?xml version="1.0" encoding="UTF-8"?>
<svg width="135.47mm" height="135.47mm" version="1.1" viewBox="0 0 135.47 135.47" xmlns="http://www.w3.org/2000/svg"><g transform="matrix(1.0195 0 0 .99799 -27.155 -71.957)"><g fill="#ff8c00"><path transform="scale(.26458)" d="m351.85 272.51-37.229 95.033a165.25 165.25 0 0 1 38.057-4.4863 165.25 165.25 0 0 1 36.449 4.084zm201.55 96.004-98.705 29.799a165.25 165.25 0 0 1 47.018 58.629zm-402.72 0.041 52.416 89.668a165.25 165.25 0 0 1 47.207-59.592zm36.789 158.87-86.484 58.387 103.88 16.209a165.25 165.25 0 0 1-17.43-73.713 165.25 165.25 0 0 1 0.0332-0.88281zm330.45 1.293a165.25 165.25 0 0 1-17.342 73.166l102.12-15.934zm-269.35 127.86-8.0098 103.34 76.279-70.326a165.25 165.25 0 0 1-68.27-33.016zm207.54 0.58789a165.25 165.25 0 0 1-67.812 32.471l74.98 70.199z"/><path d="m26.635 124.79 18.321-2.6841 4.3302 7.9209-7.2769 5.2647z"/><path d="m63.582 78.453 13.533 12.638-3.4855 8.3272-8.6554-2.399z"/><path d="m122.62 78.453-13.533 12.638 3.4855 8.3272 8.6554-2.399z"/><path d="m159.51 124.64-18.321-2.6841-4.3302 7.9209 7.277 5.2647z"/><path d="m39.935 182.41 9.2134-16.062 8.9032 1.4914-0.35877 8.9745z"/><path d="m146.23 182.33-9.2134-16.062-8.9032 1.4914 0.35877 8.9745z"/><path d="m93.193 207.84-6.794-17.225 6.7238-6.0234 6.7863 5.8836z"/></g><circle cx="93.313" cy="139.78" r="35.167" fill="#ffd700"/></g><g fill="#ff8c00" stroke-width="2.0757" aria-label="?"><path d="m83.416 54.274q0 3.0811-1.1351 5.5947-1.1351 2.473-2.8379 4.6217-1.6622 2.1487-3.3649 4.1352-1.6622 1.9865-2.7973 4.0541t-1.1351 4.419q0 0.44595 0.16216 1.2568 0.16216 0.81082 0.16216 0.81082l-5.0676-0.08108q-0.72974-1.5-1.2162-3.1217-0.44595-1.6622-0.44595-4.0946 0-2.473 0.97298-4.7838 1.0135-2.3514 2.3108-4.5001t2.2703-3.973q1.0135-1.8243 1.0135-3.2433 0-2.1487-1.4189-3.5676t-3.973-1.4189q-2.4325 0-3.5271 1.0946t-1.5406 2.2298h-3q-0.8919-0.81082-1.4595-2.0271-0.52703-1.2162-0.52703-2.1487 0-1.6216 1.2568-3.446 1.2973-1.8649 4.0946-3.1622 2.7973-1.3379 7.2568-1.3379 4.5001 0 7.6217 1.8649 3.1217 1.8243 4.7028 4.7433 1.6216 2.8784 1.6216 6.0812zm-7.3785 35.109q0 2.6757-1.8243 4.5406t-4.4595 1.8649q-2.6757 0-4.5406-1.8649t-1.8649-4.5406q0-2.6352 1.8649-4.4595t4.5406-1.8243q2.6352 0 4.4595 1.8243t1.8243 4.4595z"/></g><g fill="#fff" stroke-width="2.0757" aria-label="?"><path d="m81.828 52.686q0 3.0811-1.1351 5.5947-1.1351 2.473-2.8379 4.6217-1.6622 2.1487-3.3649 4.1352-1.6622 1.9865-2.7973 4.0541t-1.1351 4.419q0 0.44595 0.16216 1.2568 0.16216 0.81082 0.16216 0.81082l-5.0676-0.08108q-0.72974-1.5-1.2162-3.1217-0.44595-1.6622-0.44595-4.0946 0-2.473 0.97298-4.7838 1.0135-2.3514 2.3108-4.5001t2.2703-3.973q1.0135-1.8243 1.0135-3.2433 0-2.1487-1.4189-3.5676t-3.973-1.4189q-2.4325 0-3.5271 1.0946t-1.5406 2.2298h-3q-0.8919-0.81082-1.4595-2.0271-0.52703-1.2162-0.52703-2.1487 0-1.6216 1.2568-3.446 1.2973-1.8649 4.0946-3.1622 2.7973-1.3379 7.2568-1.3379 4.5001 0 7.6217 1.8649 3.1217 1.8243 4.7028 4.7433 1.6216 2.8784 1.6216 6.0812zm-7.3785 35.109q0 2.6757-1.8243 4.5406t-4.4595 1.8649q-2.6757 0-4.5406-1.8649t-1.8649-4.5406q0-2.6352 1.8649-4.4595t4.5406-1.8243q2.6352 0 4.4595 1.8243t1.8243 4.4595z"/></g></svg>
