<?xml version="1.0" encoding="UTF-8" standalone="no"?>
<!-- Created with Inkscape (http://www.inkscape.org/) -->

<svg
   width="147.99982"
   height="147.99982"
   viewBox="0 0 39.158283 39.158283"
   version="1.1"
   id="svg5"
   sodipodi:docname="qrcode.svg"
   inkscape:version="1.1.2 (1:1.1+202202050852+0a00cf5339)"
   xmlns:inkscape="http://www.inkscape.org/namespaces/inkscape"
   xmlns:sodipodi="http://sodipodi.sourceforge.net/DTD/sodipodi-0.dtd"
   xmlns="http://www.w3.org/2000/svg"
   xmlns:svg="http://www.w3.org/2000/svg">
  <sodipodi:namedview
     id="namedview9"
     pagecolor="#ffffff"
     bordercolor="#666666"
     borderopacity="1.0"
     inkscape:pageshadow="2"
     inkscape:pageopacity="0.0"
     inkscape:pagecheckerboard="0"
     showgrid="false"
     inkscape:zoom="5.3243309"
     inkscape:cx="73.999908"
     inkscape:cy="74.093817"
     inkscape:window-width="1920"
     inkscape:window-height="1053"
     inkscape:window-x="0"
     inkscape:window-y="0"
     inkscape:window-maximized="1"
     inkscape:current-layer="svg5" />
  <defs
     id="defs2" />
  <g
     inkscape:label="QR Code: https://javguerra.github.io/summer-quiz/"
     transform="scale(0.264583)"
     id="g917">
    <rect
       x="0"
       y="0"
       width="148"
       height="148"
       style="fill:#ffffff;stroke:none"
       id="rect911" />
    <g
       style="fill:#000000;stroke:none"
       id="g915">
      <path
         d="m 123.6,132 h -3.2 c -0.22091,0 -0.4,-0.17909 -0.4,-0.4 v -3.2 c 0,-0.22091 -0.17909,-0.4 -0.4,-0.4 h -3.2 c -0.22091,0 -0.4,-0.17909 -0.4,-0.4 v -3.2 c 0,-0.22091 -0.17909,-0.4 -0.4,-0.4 h -7.2 c -0.22091,0 -0.4,0.17909 -0.4,0.4 v 7.2 c 0,0.22091 -0.17909,0.4 -0.4,0.4 h -7.2 c -0.22091,0 -0.4,-0.17909 -0.4,-0.4 v -3.2 c 0,-0.22091 0.17909,-0.4 0.4,-0.4 h 3.2 c 0.22091,0 0.4,-0.17909 0.4,-0.4 V 120 h 11.6 c 0.22091,0 0.4,-0.17909 0.4,-0.4 v -3.2 c 0,-0.22091 -0.17909,-0.4 -0.4,-0.4 h -11.2 c -0.22091,0 -0.4,0.17909 -0.4,0.4 v 3.6 h -3.6 c -0.22091,0 -0.4,-0.17909 -0.4,-0.4 v -3.2 c 0,-0.22091 -0.179086,-0.4 -0.4,-0.4 h -3.2 c -0.220914,0 -0.4,0.17909 -0.4,0.4 v 3.2 c 0,0.22091 -0.179086,0.4 -0.4,0.4 H 92 v -7.6 c 0,-0.22091 0.179086,-0.4 0.4,-0.4 h 3.2 c 0.220914,0 0.4,-0.17909 0.4,-0.4 v -3.2 C 96,108.17909 95.820914,108 95.6,108 H 92.4 C 92.179086,108 92,107.82091 92,107.6 V 104 h 3.6 c 0.220914,0 0.4,-0.17909 0.4,-0.4 v -3.2 c 0,-0.22091 -0.179086,-0.4 -0.4,-0.4 h -3.2 c -0.220914,0 -0.4,0.17909 -0.4,0.4 v 3.6 h -3.6 c -0.220914,0 -0.4,0.17909 -0.4,0.4 v 3.2 c 0,0.22091 -0.179086,0.4 -0.4,0.4 h -3.2 c -0.220914,0 -0.4,0.17909 -0.4,0.4 v 11.2 c 0,0.22091 0.179086,0.4 0.4,0.4 H 92 v 3.6 c 0,0.22091 -0.179086,0.4 -0.4,0.4 H 76.4 c -0.220914,0 -0.4,0.17909 -0.4,0.4 v 3.2 c 0,0.22091 0.179086,0.4 0.4,0.4 h 11.2 c 0.220914,0 0.4,0.17909 0.4,0.4 v 3.2 c 0,0.22091 -0.179086,0.4 -0.4,0.4 H 72.4 c -0.220914,0 -0.4,-0.17909 -0.4,-0.4 v -3.2 c 0,-0.22091 -0.179086,-0.4 -0.4,-0.4 h -3.2 c -0.220914,0 -0.4,0.17909 -0.4,0.4 v 3.2 c 0,0.22091 -0.179086,0.4 -0.4,0.4 h -3.2 c -0.220914,0 -0.4,-0.17909 -0.4,-0.4 v -7.2 c 0,-0.22091 0.179086,-0.4 0.4,-0.4 h 3.2 c 0.220914,0 0.4,-0.17909 0.4,-0.4 v -3.2 c 0,-0.22091 -0.179086,-0.4 -0.4,-0.4 h -3.2 c -0.220914,0 -0.4,-0.17909 -0.4,-0.4 v -3.2 c 0,-0.22091 0.179086,-0.4 0.4,-0.4 h 3.2 c 0.220914,0 0.4,-0.17909 0.4,-0.4 v -3.2 c 0,-0.22091 0.179086,-0.4 0.4,-0.4 h 3.2 c 0.220914,0 0.4,-0.17909 0.4,-0.4 v -3.2 c 0,-0.22091 0.179086,-0.4 0.4,-0.4 H 76 v 7.6 c 0,0.22091 0.179086,0.4 0.4,0.4 h 3.2 c 0.220914,0 0.4,-0.17909 0.4,-0.4 v -7.2 C 80,108.17909 79.820914,108 79.6,108 H 76 v -3.6 C 76,104.17909 75.820914,104 75.6,104 H 72.4 C 72.179086,104 72,103.82091 72,103.6 V 96 h 3.6 c 0.220914,0 0.4,0.179086 0.4,0.4 v 3.2 c 0,0.220914 0.179086,0.4 0.4,0.4 h 3.2 c 0.220914,0 0.4,0.17909 0.4,0.4 v 3.2 c 0,0.22091 0.179086,0.4 0.4,0.4 h 3.2 c 0.220914,0 0.4,-0.17909 0.4,-0.4 V 96 h 7.6 C 91.820914,96 92,95.820914 92,95.6 V 88.4 C 92,88.179086 91.820914,88 91.6,88 H 80.4 C 80.179086,88 80,88.179086 80,88.4 V 92 H 76.4 C 76.179086,92 76,91.820914 76,91.6 V 80.4 C 76,80.179086 76.179086,80 76.4,80 h 3.2 c 0.220914,0 0.4,0.179086 0.4,0.4 v 3.2 c 0,0.220914 0.179086,0.4 0.4,0.4 h 3.2 C 83.820914,84 84,83.820914 84,83.6 V 80.4 C 84,80.179086 84.179086,80 84.4,80 h 3.2 c 0.220914,0 0.4,0.179086 0.4,0.4 v 3.2 c 0,0.220914 0.179086,0.4 0.4,0.4 h 19.2 c 0.22091,0 0.4,-0.179086 0.4,-0.4 v -3.2 c 0,-0.220914 -0.17909,-0.4 -0.4,-0.4 h -7.2 C 100.17909,80 100,79.820914 100,79.6 V 76 h 16 v 4 h -3.6 c -0.22091,0 -0.4,0.179086 -0.4,0.4 v 3.2 c 0,0.220914 0.17909,0.4 0.4,0.4 h 3.6 v 3.6 c 0,0.220914 0.17909,0.4 0.4,0.4 h 3.6 v 3.6 c 0,0.220914 -0.17909,0.4 -0.4,0.4 h -3.2 c -0.22091,0 -0.4,0.179086 -0.4,0.4 v 7.2 c 0,0.220914 0.17909,0.4 0.4,0.4 h 3.6 v 3.6 c 0,0.22091 0.17909,0.4 0.4,0.4 h 3.2 c 0.22091,0 0.4,0.17909 0.4,0.4 v 3.2 c 0,0.22091 -0.17909,0.4 -0.4,0.4 h -7.2 c -0.22091,0 -0.4,0.17909 -0.4,0.4 v 3.2 c 0,0.22091 0.17909,0.4 0.4,0.4 h 3.2 c 0.22091,0 0.4,0.17909 0.4,0.4 v 3.2 c 0,0.22091 0.17909,0.4 0.4,0.4 h 3.6 v 3.6 c 0,0.22091 0.17909,0.4 0.4,0.4 h 3.6 v 4 h -3.6 c -0.22091,0 -0.4,0.17909 -0.4,0.4 v 7.2 c 0,0.22091 -0.17909,0.4 -0.4,0.4 z m -28,0 h -3.2 c -0.220914,0 -0.4,-0.17909 -0.4,-0.4 v -3.2 c 0,-0.22091 0.179086,-0.4 0.4,-0.4 h 3.2 c 0.220914,0 0.4,0.17909 0.4,0.4 v 3.2 c 0,0.22091 -0.179086,0.4 -0.4,0.4 z m -36,0 h -3.2 c -0.220914,0 -0.4,-0.17909 -0.4,-0.4 v -3.2 c 0,-0.22091 -0.179086,-0.4 -0.4,-0.4 h -3.2 c -0.220914,0 -0.4,0.17909 -0.4,0.4 v 3.2 c 0,0.22091 -0.179086,0.4 -0.4,0.4 h -3.2 c -0.220914,0 -0.4,-0.17909 -0.4,-0.4 v -7.2 c 0,-0.22091 0.179086,-0.4 0.4,-0.4 h 7.2 c 0.220914,0 0.4,-0.17909 0.4,-0.4 V 112.4 C 56,112.17909 55.820914,112 55.6,112 H 48.4 C 48.179086,112 48,111.82091 48,111.6 V 100 h 7.6 c 0.220914,0 0.4,0.17909 0.4,0.4 v 7.2 c 0,0.22091 0.179086,0.4 0.4,0.4 h 3.2 c 0.220914,0 0.4,-0.17909 0.4,-0.4 v -3.2 c 0,-0.22091 0.179086,-0.4 0.4,-0.4 h 7.2 c 0.220914,0 0.4,0.17909 0.4,0.4 v 3.2 c 0,0.22091 -0.179086,0.4 -0.4,0.4 h -3.2 c -0.220914,0 -0.4,0.17909 -0.4,0.4 v 3.2 c 0,0.22091 -0.179086,0.4 -0.4,0.4 h -3.2 c -0.220914,0 -0.4,0.17909 -0.4,0.4 v 19.2 c 0,0.22091 -0.179086,0.4 -0.4,0.4 z m -16,0 H 16.4 c -0.220914,0 -0.4,-0.17909 -0.4,-0.4 v -27.2 c 0,-0.22091 0.179086,-0.4 0.4,-0.4 h 27.2 c 0.220914,0 0.4,0.17909 0.4,0.4 v 27.2 c 0,0.22091 -0.179086,0.4 -0.4,0.4 z m 88,-4 h -3.2 c -0.22091,0 -0.4,-0.17909 -0.4,-0.4 V 124 h 3.6 c 0.22091,0 0.4,0.17909 0.4,0.4 v 3.2 c 0,0.22091 -0.17909,0.4 -0.4,0.4 z M 40,127.6 V 108.4 C 40,108.17909 39.820914,108 39.6,108 H 20.4 c -0.220914,0 -0.4,0.17909 -0.4,0.4 v 19.2 c 0,0.22091 0.179086,0.4 0.4,0.4 h 19.2 c 0.220914,0 0.4,-0.17909 0.4,-0.4 z M 35.6,124 H 24.4 c -0.220914,0 -0.4,-0.17909 -0.4,-0.4 v -11.2 c 0,-0.22091 0.179086,-0.4 0.4,-0.4 h 11.2 c 0.220914,0 0.4,0.17909 0.4,0.4 v 11.2 c 0,0.22091 -0.179086,0.4 -0.4,0.4 z m 96,-4 H 128 v -4 h 3.6 c 0.22091,0 0.4,0.17909 0.4,0.4 v 3.2 c 0,0.22091 -0.17909,0.4 -0.4,0.4 z m -4,-4 H 124 v -3.6 c 0,-0.22091 0.17909,-0.4 0.4,-0.4 h 3.2 c 0.22091,0 0.4,0.17909 0.4,0.4 V 116 Z M 112,111.6 v -11.2 c 0,-0.22091 -0.17909,-0.4 -0.4,-0.4 h -11.2 c -0.22091,0 -0.4,0.17909 -0.4,0.4 v 11.2 c 0,0.22091 0.17909,0.4 0.4,0.4 h 11.2 c 0.22091,0 0.4,-0.17909 0.4,-0.4 z m -4.4,-3.6 h -3.2 c -0.22091,0 -0.4,-0.17909 -0.4,-0.4 v -3.2 c 0,-0.22091 0.17909,-0.4 0.4,-0.4 h 3.2 c 0.22091,0 0.4,0.17909 0.4,0.4 v 3.2 c 0,0.22091 -0.17909,0.4 -0.4,0.4 z m 24,-8 H 120 v -3.6 c 0,-0.220914 0.17909,-0.4 0.4,-0.4 h 11.2 c 0.22091,0 0.4,0.179086 0.4,0.4 v 3.2 c 0,0.220914 -0.17909,0.4 -0.4,0.4 z m -64,0 H 64.4 C 64.179086,100 64,99.820914 64,99.6 V 92 h 7.6 c 0.220914,0 0.4,0.179086 0.4,0.4 V 96 H 68.4 C 68.179086,96 68,96.179086 68,96.4 v 3.2 c 0,0.220914 -0.179086,0.4 -0.4,0.4 z m -20,0 H 32.4 C 32.179086,100 32,99.820914 32,99.6 V 92 h 8 v 3.6 c 0,0.220914 0.179086,0.4 0.4,0.4 h 3.2 C 43.820914,96 44,95.820914 44,95.6 V 92.4 C 44,92.179086 43.820914,92 43.6,92 H 40 V 88.4 C 40,88.179086 40.179086,88 40.4,88 h 11.2 c 0.220914,0 0.4,0.179086 0.4,0.4 v 7.2 C 52,95.820914 51.820914,96 51.6,96 H 48.4 C 48.179086,96 48,96.179086 48,96.4 v 3.6 z m -28,0 H 16.4 C 16.179086,100 16,99.820914 16,99.6 V 76.4 C 16,76.179086 16.179086,76 16.4,76 h 3.2 c 0.220914,0 0.4,0.179086 0.4,0.4 v 7.2 c 0,0.220914 0.179086,0.4 0.4,0.4 h 3.2 c 0.220914,0 0.4,0.179086 0.4,0.4 v 7.2 C 24,91.820914 23.820914,92 23.6,92 H 20.4 C 20.179086,92 20,92.179086 20,92.4 v 7.2 c 0,0.220914 -0.179086,0.4 -0.4,0.4 z M 112,95.6 v -7.2 c 0,-0.220914 -0.17909,-0.4 -0.4,-0.4 h -3.2 c -0.22091,0 -0.4,0.179086 -0.4,0.4 v 7.2 c 0,0.220914 0.17909,0.4 0.4,0.4 h 3.2 c 0.22091,0 0.4,-0.179086 0.4,-0.4 z m -8,0 v -3.2 c 0,-0.220914 -0.17909,-0.4 -0.4,-0.4 h -3.2 c -0.22091,0 -0.4,0.179086 -0.4,0.4 v 3.2 c 0,0.220914 0.17909,0.4 0.4,0.4 h 3.2 c 0.22091,0 0.4,-0.179086 0.4,-0.4 z M 83.6,96 H 80.4 C 80.179086,96 80,95.820914 80,95.6 V 92 h 3.6 c 0.220914,0 0.4,0.179086 0.4,0.4 V 96 Z m -24,0 H 56.4 C 56.179086,96 56,95.820914 56,95.6 V 84 h 4 v 3.6 c 0,0.220914 0.179086,0.4 0.4,0.4 H 64 v 4 H 60.4 C 60.179086,92 60,92.179086 60,92.4 v 3.2 c 0,0.220914 -0.179086,0.4 -0.4,0.4 z m 72,-4 h -3.2 C 128.17909,92 128,91.820914 128,91.6 V 88.4 C 128,88.179086 127.82091,88 127.6,88 H 120 V 84.4 C 120,84.179086 119.82091,84 119.6,84 H 116 v -4 h 3.6 c 0.22091,0 0.4,-0.179086 0.4,-0.4 V 76.4 C 120,76.179086 119.82091,76 119.6,76 H 116 v -4 h 8 v 11.6 c 0,0.220914 0.17909,0.4 0.4,0.4 h 7.2 c 0.22091,0 0.4,0.179086 0.4,0.4 v 7.2 c 0,0.220914 -0.17909,0.4 -0.4,0.4 z m -100,0 H 28.4 C 28.179086,92 28,91.820914 28,91.6 V 88.4 C 28,88.179086 28.179086,88 28.4,88 h 3.2 c 0.220914,0 0.4,0.179086 0.4,0.4 V 92 Z m 40,-4 H 64 v -4 h 7.6 c 0.220914,0 0.4,0.179086 0.4,0.4 v 3.2 c 0,0.220914 -0.179086,0.4 -0.4,0.4 z m -8,-4 H 60 V 72.4 C 60,72.179086 60.179086,72 60.4,72 h 7.2 C 67.820914,72 68,71.820914 68,71.6 V 68 h 4 v 3.6 c 0,0.220914 0.179086,0.4 0.4,0.4 h 3.2 C 75.820914,72 76,71.820914 76,71.6 V 68.4 C 76,68.179086 75.820914,68 75.6,68 H 72 V 64.4 C 72,64.179086 72.179086,64 72.4,64 h 3.2 C 75.820914,64 76,63.820914 76,63.6 V 52 h 7.6 C 83.820914,52 84,51.820914 84,51.6 V 48 h 3.6 C 87.820914,48 88,47.820914 88,47.6 V 40.4 C 88,40.179086 87.820914,40 87.6,40 H 84.4 C 84.179086,40 84,40.179086 84,40.4 V 48 H 80.4 C 80.179086,48 80,47.820914 80,47.6 V 32.4 C 80,32.179086 80.179086,32 80.4,32 H 84 v 3.6 c 0,0.220914 0.179086,0.4 0.4,0.4 h 3.2 C 87.820914,36 88,35.820914 88,35.6 V 32 h 3.6 C 91.820914,32 92,31.820914 92,31.6 V 28.4 C 92,28.179086 92.179086,28 92.4,28 h 7.2 c 0.220914,0 0.4,0.179086 0.4,0.4 v 7.2 c 0,0.220914 -0.179086,0.4 -0.4,0.4 H 92.4 C 92.179086,36 92,36.179086 92,36.4 v 15.2 c 0,0.220914 0.179086,0.4 0.4,0.4 H 96 v 4 H 88.4 C 88.179086,56 88,56.179086 88,56.4 V 60 H 84.4 C 84.179086,60 84,59.820914 84,59.6 V 56.4 C 84,56.179086 83.820914,56 83.6,56 H 80.4 C 80.179086,56 80,56.179086 80,56.4 v 11.2 c 0,0.220914 0.179086,0.4 0.4,0.4 H 95.6 C 95.820914,68 96,67.820914 96,67.6 V 64.4 C 96,64.179086 96.179086,64 96.4,64 H 100 V 76 H 96 V 72.4 C 96,72.179086 95.820914,72 95.6,72 H 92.4 C 92.179086,72 92,72.179086 92,72.4 V 76 H 88.4 C 88.179086,76 88,75.820914 88,75.6 V 72.4 C 88,72.179086 87.820914,72 87.6,72 H 84.4 C 84.179086,72 84,72.179086 84,72.4 v 3.2 C 84,75.820914 83.820914,76 83.6,76 H 64.4 C 64.179086,76 64,76.179086 64,76.4 V 84 Z m -8,0 H 40.4 C 40.179086,84 40,83.820914 40,83.6 V 80.4 C 40,80.179086 40.179086,80 40.4,80 H 51.6 C 51.820914,80 52,79.820914 52,79.6 V 72 h 3.6 c 0.220914,0 0.4,0.179086 0.4,0.4 V 84 Z m -24,0 H 28.4 C 28.179086,84 28,83.820914 28,83.6 V 80.4 C 28,80.179086 27.820914,80 27.6,80 H 24.4 C 24.179086,80 24,79.820914 24,79.6 V 76.4 C 24,76.179086 24.179086,76 24.4,76 h 7.2 C 31.820914,76 32,75.820914 32,75.6 V 72.4 C 32,72.179086 32.179086,72 32.4,72 h 3.2 C 35.820914,72 36,71.820914 36,71.6 V 68 h 4 v 3.6 c 0,0.220914 0.179086,0.4 0.4,0.4 H 44 v 3.6 C 44,75.820914 43.820914,76 43.6,76 H 36.4 C 36.179086,76 36,76.179086 36,76.4 v 3.2 C 36,79.820914 35.820914,80 35.6,80 H 32.4 C 32.179086,80 32,80.179086 32,80.4 v 3.2 c 0,0.220914 -0.179086,0.4 -0.4,0.4 z m 100,-4 h -3.2 c -0.22091,0 -0.4,-0.179086 -0.4,-0.4 v -3.2 c 0,-0.220914 0.17909,-0.4 0.4,-0.4 h 3.2 c 0.22091,0 0.4,0.179086 0.4,0.4 v 3.2 c 0,0.220914 -0.17909,0.4 -0.4,0.4 z m -36,0 H 92.4 C 92.179086,80 92,79.820914 92,79.6 V 76 h 4 v 3.6 c 0,0.220914 -0.179086,0.4 -0.4,0.4 z m 36,-8 H 124 v -3.6 c 0,-0.220914 0.17909,-0.4 0.4,-0.4 h 3.2 c 0.22091,0 0.4,-0.179086 0.4,-0.4 v -3.2 c 0,-0.220914 0.17909,-0.4 0.4,-0.4 h 3.2 c 0.22091,0 0.4,0.179086 0.4,0.4 v 7.2 c 0,0.220914 -0.17909,0.4 -0.4,0.4 z m -16,0 H 104.4 C 104.17909,72 104,71.820914 104,71.6 V 64 h 3.6 c 0.22091,0 0.4,-0.179086 0.4,-0.4 V 52.4 c 0,-0.220914 0.17909,-0.4 0.4,-0.4 h 3.2 c 0.22091,0 0.4,-0.179086 0.4,-0.4 v -3.2 c 0,-0.220914 0.17909,-0.4 0.4,-0.4 h 7.2 c 0.22091,0 0.4,0.179086 0.4,0.4 V 52 h -3.6 c -0.22091,0 -0.4,0.179086 -0.4,0.4 v 3.2 c 0,0.220914 -0.17909,0.4 -0.4,0.4 h -3.2 c -0.22091,0 -0.4,0.179086 -0.4,0.4 v 3.2 c 0,0.220914 0.17909,0.4 0.4,0.4 h 7.2 c 0.22091,0 0.4,0.179086 0.4,0.4 v 3.2 c 0,0.220914 -0.17909,0.4 -0.4,0.4 h -7.2 c -0.22091,0 -0.4,0.179086 -0.4,0.4 v 3.2 c 0,0.220914 0.17909,0.4 0.4,0.4 h 3.2 c 0.22091,0 0.4,0.179086 0.4,0.4 V 72 Z m -64,0 H 44 v -4 h 3.6 C 47.820914,68 48,67.820914 48,67.6 V 60 h 8 v 7.6 C 56,67.820914 55.820914,68 55.6,68 H 52.4 C 52.179086,68 52,68.179086 52,68.4 V 72 Z m -24,0 H 24.4 C 24.179086,72 24,71.820914 24,71.6 V 68 h 4 v 3.6 c 0,0.220914 -0.179086,0.4 -0.4,0.4 z m 40,-4 H 60.4 C 60.179086,68 60,67.820914 60,67.6 V 64.4 C 60,64.179086 60.179086,64 60.4,64 h 3.2 C 63.820914,64 64,63.820914 64,63.6 V 60.4 C 64,60.179086 64.179086,60 64.4,60 H 68 v 8 z m -24,0 H 40 v -4 h 3.6 c 0.220914,0 0.4,0.179086 0.4,0.4 V 68 Z m -8,0 H 28 v -4 h 3.6 C 31.820914,64 32,63.820914 32,63.6 V 56.4 C 32,56.179086 32.179086,56 32.4,56 H 36 v 3.6 c 0,0.220914 0.179086,0.4 0.4,0.4 H 40 v 4 H 36.4 C 36.179086,64 36,64.179086 36,64.4 V 68 Z m -12,0 H 16.4 C 16.179086,68 16,67.820914 16,67.6 V 56.4 C 16,56.179086 16.179086,56 16.4,56 h 3.2 C 19.820914,56 20,55.820914 20,55.6 V 52.4 C 20,52.179086 19.820914,52 19.6,52 H 16.4 C 16.179086,52 16,51.820914 16,51.6 V 48.4 C 16,48.179086 16.179086,48 16.4,48 h 7.2 c 0.220914,0 0.4,0.179086 0.4,0.4 v 3.2 c 0,0.220914 0.179086,0.4 0.4,0.4 h 3.2 c 0.220914,0 0.4,0.179086 0.4,0.4 v 3.2 C 28,55.820914 27.820914,56 27.6,56 H 24.4 C 24.179086,56 24,56.179086 24,56.4 v 3.2 c 0,0.220914 0.179086,0.4 0.4,0.4 h 3.2 c 0.220914,0 0.4,0.179086 0.4,0.4 V 64 H 24.4 C 24.179086,64 24,64.179086 24,64.4 V 68 Z m 80,-4 H 100 v -4 h 3.6 c 0.22091,0 0.4,0.179086 0.4,0.4 V 64 Z m -12,0 H 88.4 C 88.179086,64 88,63.820914 88,63.6 V 60 h 3.6 c 0.220914,0 0.4,0.179086 0.4,0.4 v 3.2 c 0,0.220914 -0.179086,0.4 -0.4,0.4 z m 8,-4 H 96.4 C 96.179086,60 96,59.820914 96,59.6 V 56 h 4 v 4 z m -28,0 H 68 V 56.4 C 68,56.179086 67.820914,56 67.6,56 H 64.4 C 64.179086,56 64,55.820914 64,55.6 V 52 h 3.6 C 67.820914,52 68,51.820914 68,51.6 V 48.4 C 68,48.179086 68.179086,48 68.4,48 h 3.2 C 71.820914,48 72,47.820914 72,47.6 V 40.4 C 72,40.179086 72.179086,40 72.4,40 h 3.2 c 0.220914,0 0.4,0.179086 0.4,0.4 V 52 H 72.4 C 72.179086,52 72,52.179086 72,52.4 v 7.2 c 0,0.220914 -0.179086,0.4 -0.4,0.4 z m -12,0 H 56 v -4 h 3.6 c 0.220914,0 0.4,0.179086 0.4,0.4 v 3.2 c 0,0.220914 -0.179086,0.4 -0.4,0.4 z m -12,0 H 40 v -4 h 3.6 C 43.820914,56 44,55.820914 44,55.6 V 52.4 C 44,52.179086 43.820914,52 43.6,52 H 40.4 C 40.179086,52 40,52.179086 40,52.4 V 56 H 36 V 48.4 C 36,48.179086 36.179086,48 36.4,48 h 11.2 c 0.220914,0 0.4,0.179086 0.4,0.4 V 60 Z m 80,-4 h -7.2 C 120.17909,56 120,55.820914 120,55.6 V 52 h 7.6 c 0.22091,0 0.4,0.179086 0.4,0.4 v 3.2 c 0,0.220914 -0.17909,0.4 -0.4,0.4 z m -24,0 H 100 v -4 h 3.6 c 0.22091,0 0.4,0.179086 0.4,0.4 v 3.2 c 0,0.220914 -0.17909,0.4 -0.4,0.4 z m -48,0 H 52.4 C 52.179086,56 52,55.820914 52,55.6 V 48.4 C 52,48.179086 52.179086,48 52.4,48 H 56 v 8 z m 44,-4 H 96 V 40.4 C 96,40.179086 96.179086,40 96.4,40 h 3.2 c 0.220914,0 0.4,0.179086 0.4,0.4 V 52 Z m -36,0 H 60.4 C 60.179086,52 60,51.820914 60,51.6 V 48.4 C 60,48.179086 59.820914,48 59.6,48 H 56 V 40.4 C 56,40.179086 56.179086,40 56.4,40 H 60 v 3.6 c 0,0.220914 0.179086,0.4 0.4,0.4 H 64 v 8 z m 68,-8 H 104.4 C 104.17909,44 104,43.820914 104,43.6 V 16.4 c 0,-0.220914 0.17909,-0.4 0.4,-0.4 h 27.2 c 0.22091,0 0.4,0.179086 0.4,0.4 v 27.2 c 0,0.220914 -0.17909,0.4 -0.4,0.4 z m -64,0 H 64 V 40.4 C 64,40.179086 63.820914,40 63.6,40 H 60 V 36.4 C 60,36.179086 60.179086,36 60.4,36 H 68 v 7.6 c 0,0.220914 -0.179086,0.4 -0.4,0.4 z m -16,0 H 48.4 C 48.179086,44 48,43.820914 48,43.6 V 40.4 C 48,40.179086 48.179086,40 48.4,40 h 3.2 c 0.220914,0 0.4,0.179086 0.4,0.4 v 3.2 c 0,0.220914 -0.179086,0.4 -0.4,0.4 z m -8,0 H 16.4 C 16.179086,44 16,43.820914 16,43.6 V 16.4 C 16,16.179086 16.179086,16 16.4,16 h 27.2 c 0.220914,0 0.4,0.179086 0.4,0.4 V 43.6 C 44,43.820914 43.820914,44 43.6,44 Z M 128,39.6 V 20.4 c 0,-0.220914 -0.17909,-0.4 -0.4,-0.4 h -19.2 c -0.22091,0 -0.4,0.179086 -0.4,0.4 v 19.2 c 0,0.220914 0.17909,0.4 0.4,0.4 h 19.2 c 0.22091,0 0.4,-0.179086 0.4,-0.4 z m -88,0 V 20.4 C 40,20.179086 39.820914,20 39.6,20 H 20.4 C 20.179086,20 20,20.179086 20,20.4 v 19.2 c 0,0.220914 0.179086,0.4 0.4,0.4 H 39.6 C 39.820914,40 40,39.820914 40,39.6 Z M 123.6,36 H 112.4 C 112.17909,36 112,35.820914 112,35.6 V 24.4 c 0,-0.220914 0.17909,-0.4 0.4,-0.4 h 11.2 c 0.22091,0 0.4,0.179086 0.4,0.4 v 11.2 c 0,0.220914 -0.17909,0.4 -0.4,0.4 z m -52,0 H 68 V 32.4 C 68,32.179086 67.820914,32 67.6,32 H 64.4 C 64.179086,32 64,31.820914 64,31.6 V 24.4 C 64,24.179086 64.179086,24 64.4,24 h 3.2 c 0.220914,0 0.4,0.179086 0.4,0.4 v 3.2 c 0,0.220914 0.179086,0.4 0.4,0.4 H 72 v 7.6 c 0,0.220914 -0.179086,0.4 -0.4,0.4 z m -16,0 H 48.4 C 48.179086,36 48,35.820914 48,35.6 V 28.4 C 48,28.179086 48.179086,28 48.4,28 h 3.2 c 0.220914,0 0.4,0.179086 0.4,0.4 v 3.2 c 0,0.220914 0.179086,0.4 0.4,0.4 h 3.2 c 0.220914,0 0.4,0.179086 0.4,0.4 v 3.2 c 0,0.220914 -0.179086,0.4 -0.4,0.4 z m -20,0 H 24.4 C 24.179086,36 24,35.820914 24,35.6 V 24.4 C 24,24.179086 24.179086,24 24.4,24 h 11.2 c 0.220914,0 0.4,0.179086 0.4,0.4 v 11.2 c 0,0.220914 -0.179086,0.4 -0.4,0.4 z m 52,-4 H 84 V 28.4 C 84,28.179086 84.179086,28 84.4,28 h 3.2 c 0.220914,0 0.4,0.179086 0.4,0.4 V 32 Z m -8,-4 H 72 v -8 h 3.6 c 0.220914,0 0.4,0.179086 0.4,0.4 v 3.2 c 0,0.220914 0.179086,0.4 0.4,0.4 H 80 v 3.6 c 0,0.220914 -0.179086,0.4 -0.4,0.4 z m 4,-4 H 80 V 20.4 C 80,20.179086 80.179086,20 80.4,20 H 84 v 3.6 c 0,0.220914 -0.179086,0.4 -0.4,0.4 z m -24,0 H 52.4 C 52.179086,24 52,23.820914 52,23.6 V 20.4 C 52,20.179086 52.179086,20 52.4,20 H 60 v 3.6 c 0,0.220914 -0.179086,0.4 -0.4,0.4 z m 28,-4 H 84 V 16.4 C 84,16.179086 84.179086,16 84.4,16 h 3.2 c 0.220914,0 0.4,0.179086 0.4,0.4 v 3.2 c 0,0.220914 -0.179086,0.4 -0.4,0.4 z m -16,0 H 60 V 16.4 C 60,16.179086 60.179086,16 60.4,16 h 11.2 c 0.220914,0 0.4,0.179086 0.4,0.4 V 20 Z"
         id="path913" />
    </g>
  </g>
</svg>
