<?xml version="1.0" encoding="UTF-8"?>
<svg width="100" height="100" version="1.1" viewBox="0 0 26.459 26.459" xmlns="http://www.w3.org/2000/svg"><g transform="matrix(.082686 .0044887 .0044887 -.082686 4.7425 17.797)"><path d="m0 0c-0.402 0.387-1.043 0.382-1.438-0.015zm-11.256-1.463c1.256 1.256 2.992 2.033 4.91 2.033 1.92 0 3.656-0.775 4.908-2.029l4e-3 -4e-3c1.254-1.253 2.03-2.989 2.03-4.909 0-1.917-0.777-3.653-2.034-4.91l2e-3 -2e-3 -2e-3 -2e-3c-1.252-1.254-2.988-2.029-4.908-2.029-1.918 0-3.654 0.777-4.91 2.033-1.256 1.257-2.033 2.993-2.033 4.91 0 1.895 0.756 3.611 1.98 4.86zm4.91 4.087c2.473 0 4.716-1.003 6.346-2.624l0.011-0.011 3e-3 -2e-3 2e-3 -2e-3c1.627-1.631 2.634-3.878 2.634-6.357 0-2.484-1.007-4.734-2.634-6.362l-2e-3 3e-3c-1.631-1.63-3.879-2.638-6.36-2.638-2.484 0-4.734 1.008-6.362 2.635-1.628 1.628-2.635 3.878-2.635 6.362 0 2.45 0.984 4.673 2.577 6.298 0.018 0.022 0.037 0.043 0.058 0.063 1.628 1.628 3.878 2.635 6.362 2.635m4.065-5.457c-0.383 0.538-1.129 0.664-1.666 0.281-0.537-0.382-0.662-1.128-0.281-1.665 0.184-0.257 0.326-0.521 0.431-0.784l-4e-3 -2e-3c0.328-0.829 0.326-1.707 0.14-2.451-0.172-0.688-0.474-1.221-0.788-1.445l-0.032-0.025-0.015-8e-3c-0.615-0.239-0.919-0.933-0.679-1.548 0.239-0.615 0.934-0.918 1.548-0.679 0.166 0.066 0.329 0.153 0.484 0.256 0.031 0.017 0.059 0.036 0.088 0.057 0.746 0.534 1.406 1.575 1.714 2.811 0.295 1.179 0.294 2.577-0.233 3.912l-4e-3 -2e-3v2e-3c-0.177 0.445-0.409 0.879-0.703 1.29" fill="#0ff" fill-rule="evenodd"/></g><g transform="matrix(.082686 .0044887 .0044887 -.082686 16.879 1.8379)"><path d="m0 0c-0.523 0.504-1.355 0.497-1.869-0.02zm-14.643-1.903c1.635 1.634 3.893 2.645 6.387 2.645 2.498 0 4.756-1.009 6.387-2.64l5e-3 -5e-3c1.632-1.631 2.64-3.889 2.64-6.387 0-2.494-1.011-4.752-2.645-6.386l2e-3 -3e-3 -2e-3 -3e-3c-1.631-1.631-3.889-2.64-6.387-2.64-2.494 0-4.752 1.012-6.387 2.646-1.633 1.634-2.645 3.892-2.645 6.386 0 2.466 0.983 4.698 2.577 6.323zm6.387 5.317c3.218 0 6.136-1.305 8.256-3.414l0.02-0.02c2.117-2.121 3.427-5.044 3.427-8.27 0-3.231-1.31-6.157-3.427-8.275l-3e-3 2e-3c-2.121-2.119-5.046-3.43-8.273-3.43-3.23 0-6.158 1.31-8.275 3.428s-3.428 5.044-3.428 8.275c0 3.187 1.279 6.08 3.353 8.194 0.023 0.028 0.048 0.055 0.075 0.082 2.117 2.118 5.045 3.428 8.275 3.428m5.288-7.099c-0.497 0.7-1.468 0.863-2.167 0.365-0.699-0.497-0.862-1.467-0.365-2.166 0.239-0.335 0.424-0.678 0.561-1.02l-6e-3 -2e-3c0.426-1.078 0.424-2.221 0.182-3.189-0.223-0.895-0.616-1.588-1.024-1.881l-0.043-0.031-0.02-0.01c-0.799-0.312-1.195-1.214-0.882-2.014 0.312-0.8 1.214-1.195 2.014-0.883 0.216 0.086 0.428 0.198 0.63 0.332 0.039 0.023 0.076 0.048 0.114 0.075 0.97 0.694 1.828 2.049 2.23 3.656 0.384 1.534 0.383 3.354-0.304 5.089l-5e-3 -2e-3 -1e-3 2e-3c-0.229 0.579-0.531 1.144-0.914 1.679" fill="#0ff" fill-rule="evenodd"/></g><path transform="matrix(.082686 .0044887 .0044887 -.082686 7.0064 1.3188)" d="m0 0c-0.492 0.475-1.277 0.468-1.761-0.018zm-13.79-1.792c1.539 1.539 3.666 2.491 6.015 2.491 2.352 0 4.478-0.95 6.014-2.486l5e-3 -5e-3c1.536-1.536 2.486-3.662 2.486-6.015 0-2.349-0.952-4.476-2.491-6.014l3e-3 -3e-3 -3e-3 -3e-3c-1.536-1.536-3.662-2.486-6.014-2.486-2.349 0-4.476 0.952-6.015 2.492-1.539 1.538-2.491 3.665-2.491 6.014 0 2.323 0.926 4.424 2.427 5.955zm6.015 5.007c3.031 0 5.779-1.229 7.775-3.215l0.014-0.013 2e-3 -3e-3 2e-3 -2e-3c1.995-1.998 3.229-4.751 3.229-7.789 0-3.043-1.234-5.799-3.229-7.794l-2e-3 3e-3c-1.997-1.996-4.752-3.231-7.791-3.231-3.043 0-5.799 1.234-7.793 3.228-1.995 1.995-3.23 4.751-3.23 7.794 0 3.002 1.205 5.726 3.158 7.717 0.023 0.027 0.046 0.052 0.072 0.077 1.994 1.994 4.75 3.228 7.793 3.228m4.98-6.685c-0.469 0.658-1.383 0.813-2.041 0.344-0.658-0.468-0.812-1.382-0.344-2.041 0.226-0.314 0.399-0.638 0.528-0.96l-4e-3 -2e-3c0.4-1.016 0.398-2.091 0.171-3.003-0.21-0.843-0.581-1.496-0.966-1.771l-0.039-0.03-0.02-9e-3c-0.752-0.294-1.125-1.144-0.83-1.898 0.293-0.753 1.144-1.125 1.897-0.831 0.203 0.081 0.402 0.187 0.593 0.314 0.037 0.021 0.073 0.044 0.108 0.069 0.914 0.655 1.721 1.93 2.099 3.444 0.362 1.445 0.361 3.158-0.286 4.793l-5e-3 -2e-3v2e-3c-0.216 0.545-0.501 1.077-0.861 1.581" fill="#0ff" fill-rule="evenodd"/><g transform="matrix(.082686 .0044887 .0044887 -.082686 2.1371 5.8414)"><path d="m11.739-4.4848c2.445 2.445 5.825 3.958 9.557 3.958 3.733 0 7.113-1.513 9.557-3.958 2.446-2.445 3.958-5.824 3.958-9.557s-1.512-7.112-3.958-9.557c-2.444-2.445-5.825-3.958-9.557-3.958s-7.112 1.513-9.557 3.958c-2.444 2.445-3.957 5.825-3.957 9.557s1.513 7.112 3.957 9.557m9.557 6.479c4.427 0 8.437-1.795 11.339-4.697s4.697-6.912 4.697-11.339-1.795-8.437-4.697-11.339c-2.902-2.901-6.911-4.696-11.339-4.696-4.427 0-8.436 1.795-11.338 4.696-2.902 2.902-4.698 6.912-4.698 11.339 0 4.428 1.796 8.437 4.698 11.339s6.912 4.697 11.338 4.697m8.425-10.079c-0.467 0.653-1.377 0.803-2.029 0.336-0.651-0.468-0.802-1.376-0.334-2.028 0.371-0.52 0.662-1.062 0.879-1.611 0.014-0.035 0.029-0.069 0.045-0.102 0.631-1.663 0.619-3.417 0.246-4.912-0.363-1.454-1.035-2.604-1.752-3.117l-4e-3 -3e-3 -2e-3 3e-3c-0.093-0.066-0.18-0.117-0.26-0.149-0.748-0.294-1.113-1.139-0.818-1.885 0.294-0.746 1.139-1.113 1.885-0.818 0.307 0.121 0.603 0.286 0.887 0.489l-2e-3 3e-3c1.248 0.894 2.355 2.662 2.883 4.773 0.501 2.006 0.509 4.381-0.361 6.662-0.013 0.042-0.026 0.083-0.043 0.124-0.303 0.765-0.705 1.516-1.22 2.235" fill="#0ff" fill-rule="evenodd"/></g><g transform="matrix(.091712 .0049787 .0049787 -.091712 16.641 21.829)"><path d="m0 0c-0.486 0.469-1.262 0.463-1.74-0.019zm-13.635-1.773c1.522 1.522 3.625 2.463 5.947 2.463 2.327 0 4.43-0.939 5.948-2.458l6e-3 -5e-3c1.518-1.518 2.458-3.622 2.458-5.948 0-2.322-0.943-4.425-2.464-5.947l3e-3 -3e-3 -3e-3 -3e-3c-1.518-1.518-3.621-2.458-5.948-2.458-2.322 0-4.425 0.943-5.947 2.464-1.522 1.522-2.464 3.625-2.464 5.947 0 2.297 0.915 4.375 2.4 5.889zm5.947 4.952c2.997 0 5.714-1.216 7.688-3.179l0.017-0.017 3e-3 -2e-3c1.971-1.975 3.192-4.698 3.192-7.702 0-3.008-1.221-5.734-3.192-7.707l-3e-3 3e-3c-1.976-1.973-4.7-3.194-7.705-3.194-3.008 0-5.734 1.22-7.707 3.191-1.971 1.973-3.192 4.699-3.192 7.707 0 2.969 1.191 5.662 3.122 7.631 0.023 0.027 0.047 0.052 0.07 0.076 1.973 1.973 4.699 3.193 7.707 3.193m4.925-6.611c-0.464 0.651-1.367 0.803-2.017 0.34-0.652-0.463-0.804-1.367-0.341-2.017 0.223-0.313 0.394-0.631 0.521-0.952l-4e-3 -1e-3c0.397-1.004 0.395-2.067 0.169-2.969-0.208-0.833-0.573-1.479-0.954-1.752l-0.039-0.03-0.019-7e-3c-0.744-0.291-1.112-1.132-0.822-1.877 0.29-0.744 1.132-1.113 1.876-0.823 0.202 0.081 0.399 0.185 0.587 0.311 0.036 0.021 0.072 0.043 0.107 0.068 0.903 0.647 1.701 1.909 2.076 3.407 0.357 1.427 0.356 3.122-0.283 4.738l-4e-3 -2e-3 -2e-3 2e-3c-0.213 0.539-0.494 1.065-0.851 1.564" fill="#0ff" fill-rule="evenodd"/></g><path d="m10.126 10.272s-0.22758-7.9052 1.2037-7.5235c1.4313 0.38167 3.6724 7.1426 3.6724 7.1426s0.68284 1.4983 2.1813 0.84713c1.4985-0.65118 8.4058-2.3292 9.2053-1.7268 0.79967 0.60228-5.4841 4.404-7.1614 5.2745-1.8372 2.3838 3.7386 5.7137 3.9392 9.428-0.38544 1.3995-7.0314-4.4696-7.0314-4.4696s-1.46-2.1047-2.8822 0.4159c-1.8826 3.3365-5.0308 6.3525-5.3714 6.3668-0.34064 0.0143-0.28347-2.9052 1.9025-8.1588 0.6436-1.5468-2.4863-2.3336-2.4863-2.3336s-7.4848-3.0563-7.2944-3.7088c0.19048-0.65246 3.1074-0.95003 8.7608-0.31942 1.7608 0.1964 1.3619-1.2348 1.3619-1.2348z" fill="#f60" stroke-width=".21998"/><path d="m10.126 9.7507s-0.22758-7.9052 1.2037-7.5235c1.4313 0.38167 3.6724 7.1426 3.6724 7.1426s0.68284 1.4983 2.1813 0.84713c1.4985-0.65118 8.4058-2.3292 9.2053-1.7268 0.79967 0.60228-5.4841 4.404-7.1614 5.2745-1.8372 2.3838 3.7386 5.7137 3.9392 9.428-0.38544 1.3995-7.0314-4.4696-7.0314-4.4696s-1.46-2.1047-2.8822 0.4159c-1.8826 3.3365-5.0308 6.3525-5.3714 6.3668-0.34064 0.0143-0.28347-2.9052 1.9025-8.1588 0.6436-1.5468-2.4863-2.3336-2.4863-2.3336s-7.4848-3.0563-7.2944-3.7088c0.19048-0.65246 3.1074-0.95003 8.7608-0.31942 1.7608 0.1964 1.3619-1.2348 1.3619-1.2348z" fill="#febd01" stroke-width=".21998"/><g stroke-linecap="round" stroke-linejoin="round"><ellipse cx="15.601" cy="10.756" rx="1.9126" ry="1.9135" fill="#fff" stroke="#f60" stroke-width=".58779"/><ellipse cx="16.344" cy="11.068" rx=".77299" ry=".7734" stroke-width=".031664"/><ellipse cx="10.442" cy="11.792" rx="1.9126" ry="1.9135" fill="#fff" stroke="#f60" stroke-width=".58779"/><ellipse cx="11.11" cy="12.055" rx=".77299" ry=".7734" stroke-width=".031664"/><g transform="matrix(.2197 0 0 .22028 -6.9563 -14.858)" fill="#00bc3a" stroke-width=".275"><circle cx="82.469" cy="85.501" r="1.4728"/><circle cx="80.881" cy="89.735" r="1.4728"/><circle cx="85.643" cy="91.851" r="1.4728"/><circle cx="86.702" cy="96.084" r="1.4728"/><circle cx="81.939" cy="95.026" r="1.4728"/><circle cx="81.939" cy="100.32" r="1.4728"/><circle cx="80.352" cy="163.29" r="1.4728"/><circle cx="74.002" cy="165.41" r="1.4728"/><circle cx="78.235" cy="167.52" r="1.4728"/><circle cx="72.414" cy="170.7" r="1.4728"/><circle cx="74.531" cy="173.87" r="1.4728"/><circle cx="70.298" cy="177.05" r="1.4728"/><circle cx="129.95" cy="120.02" r="1.4728"/><circle cx="131.04" cy="114.21" r="1.4728"/><circle cx="135.4" cy="111.19" r="1.4728"/><circle cx="140.17" cy="109.14" r="1.4728"/><circle cx="135.16" cy="116.74" r="1.4728"/><circle cx="139.47" cy="114.72" r="1.4728"/><circle cx="143.55" cy="111.64" r="1.4728"/><circle cx="148.05" cy="108.4" r="1.4728"/></g></g><g transform="matrix(1.5232 -.15021 .13542 1.1943 -9.1003 -.9764)"><path d="m12.205 15.266s0.4426 0.15442 0.60808-0.51538" fill="#008000" fill-opacity="0" stroke="#f60" stroke-linecap="round" stroke-linejoin="round" stroke-width=".28125"/><g transform="matrix(.2197 0 0 .22028 -6.9566 -15.22)" fill="#fff" stroke-width="1.2785"><path d="m103.55 136.02s-1.9564 0.85572-2.9314-2.1173" fill-opacity="0" stroke="#f60" stroke-linecap="round" stroke-linejoin="round"/><path d="m101.69 135.63s-4.2299 5.6236-12.527 2.1092c0 0 7.6148 20.841 12.527-2.1092"/><path d="m101.69 135.63s-4.2299 5.6236-12.527 2.1092c0 0 7.6148 20.841 12.527-2.1092z" fill-opacity="0" stroke="#f60" stroke-linecap="round" stroke-linejoin="round"/></g></g><g transform="matrix(.082686 .0044887 .0044887 -.082686 19.56 6.155)"><path d="m0 0c-0.402 0.387-1.043 0.382-1.438-0.015zm-11.256-1.463c1.256 1.256 2.992 2.033 4.91 2.033 1.92 0 3.656-0.775 4.908-2.029l4e-3 -4e-3c1.254-1.253 2.03-2.989 2.03-4.909 0-1.917-0.777-3.653-2.034-4.91l2e-3 -2e-3 -2e-3 -2e-3c-1.252-1.254-2.988-2.029-4.908-2.029-1.918 0-3.654 0.777-4.91 2.033-1.256 1.257-2.033 2.993-2.033 4.91 0 1.895 0.756 3.611 1.98 4.86zm4.91 4.087c2.473 0 4.716-1.003 6.346-2.624l0.011-0.011 3e-3 -2e-3 2e-3 -2e-3c1.627-1.631 2.634-3.878 2.634-6.357 0-2.484-1.007-4.734-2.634-6.362l-2e-3 3e-3c-1.631-1.63-3.879-2.638-6.36-2.638-2.484 0-4.734 1.008-6.362 2.635-1.628 1.628-2.635 3.878-2.635 6.362 0 2.45 0.984 4.673 2.577 6.298 0.018 0.022 0.037 0.043 0.058 0.063 1.628 1.628 3.878 2.635 6.362 2.635m4.065-5.457c-0.383 0.538-1.129 0.664-1.666 0.281-0.537-0.382-0.662-1.128-0.281-1.665 0.184-0.257 0.326-0.521 0.431-0.784l-4e-3 -2e-3c0.328-0.829 0.326-1.707 0.14-2.451-0.172-0.688-0.474-1.221-0.788-1.445l-0.032-0.025-0.015-8e-3c-0.615-0.239-0.919-0.933-0.679-1.548 0.239-0.615 0.934-0.918 1.548-0.679 0.166 0.066 0.329 0.153 0.484 0.256 0.031 0.017 0.059 0.036 0.088 0.057 0.746 0.534 1.406 1.575 1.714 2.811 0.295 1.179 0.294 2.577-0.233 3.912l-4e-3 -2e-3v2e-3c-0.177 0.445-0.409 0.879-0.703 1.29" fill="#0ff" fill-rule="evenodd"/></g><path d="m12.219 10.904s0.38758-1.0907 1.4184-0.31444" fill="none" stroke="#f60" stroke-width=".61138"/></svg>
